<?xml version="1.0" standalone="no"?>
<!DOCTYPE svg PUBLIC "-//W3C//DTD SVG 20010904//EN"
 "http://www.w3.org/TR/2001/REC-SVG-20010904/DTD/svg10.dtd">
<svg version="1.0" xmlns="http://www.w3.org/2000/svg"
 width="473.000000pt" height="500.000000pt" viewBox="0 0 473.000000 500.000000"
 preserveAspectRatio="xMidYMid meet">

<g transform="translate(0.000000,500.000000) scale(0.100000,-0.100000)"
fill="#000000" stroke="none">
<path d="M2339 4943 c-1 -5 0 -20 1 -35 1 -20 -3 -28 -14 -28 -9 0 -16 -4 -16
-10 0 -5 7 -7 15 -4 16 7 22 -21 6 -30 -5 -3 -7 -15 -4 -27 5 -17 2 -20 -18
-17 -20 2 -25 -2 -27 -24 -2 -15 1 -36 7 -46 9 -17 7 -20 -22 -25 -24 -3 -39
2 -59 18 -15 13 -44 29 -64 35 -44 15 -140 8 -157 -10 -10 -10 -9 -11 3 -5 9
5 12 4 7 -1 -5 -5 -15 -9 -24 -9 -29 0 -56 -51 -61 -114 -4 -52 -1 -67 23
-108 16 -26 44 -61 63 -77 43 -37 92 -112 92 -143 0 -26 32 -43 81 -43 22 0
29 -5 29 -19 0 -43 -42 -149 -78 -196 -38 -50 -130 -115 -164 -115 -27 0 -11
26 30 51 49 29 81 68 82 98 0 17 -4 22 -16 17 -9 -3 -22 -6 -30 -6 -7 0 -13
-8 -11 -17 1 -10 -2 -18 -8 -18 -5 0 -9 6 -9 13 1 6 -3 12 -8 12 -5 0 -8 -10
-6 -22 2 -17 -2 -23 -14 -22 -10 1 -18 -2 -18 -7 0 -5 -4 -9 -10 -9 -20 0 -10
28 13 35 15 4 18 8 9 12 -8 3 -27 -4 -43 -16 -37 -27 -38 -13 -2 25 15 16 26
32 25 37 -3 11 13 8 26 -5 9 -9 12 -9 12 0 0 7 -6 12 -12 12 -7 1 -2 10 11 20
l23 20 -32 0 c-23 0 -40 -9 -66 -36 -34 -37 -47 -28 -19 13 14 20 14 22 -12
25 -14 2 -28 8 -30 15 -3 9 4 10 28 3 40 -12 46 -7 29 25 -10 18 -10 28 -2 38
11 13 7 27 -8 27 -4 0 -13 -13 -20 -30 -7 -16 -17 -28 -24 -27 -7 1 -12 -19
-14 -56 -2 -37 1 -57 7 -53 5 4 12 2 16 -4 3 -5 -1 -10 -9 -10 -9 0 -16 -5
-16 -11 0 -5 -5 -7 -11 -3 -8 4 -8 9 -1 13 7 4 8 12 2 21 -6 8 -10 27 -10 41
0 23 -25 55 -55 72 -7 3 -11 -8 -11 -28 0 -21 3 -30 8 -22 9 14 9 13 13 -28 2
-16 6 -43 9 -59 3 -16 2 -25 -2 -21 -4 3 -8 11 -8 16 -1 5 -2 12 -3 16 0 4 -8
-3 -17 -15 -20 -28 -39 -29 -23 -1 8 16 8 20 -1 14 -7 -4 -13 1 -17 14 -3 11
-9 19 -13 16 -14 -9 -23 16 -11 28 6 6 11 15 11 21 0 5 -6 2 -13 -9 -9 -11
-19 -15 -27 -10 -10 6 -9 11 4 21 10 7 13 15 7 18 -15 10 -33 -31 -26 -57 4
-12 19 -46 33 -76 24 -49 24 -55 9 -66 -14 -10 -8 -11 32 -7 61 6 144 -18 236
-68 38 -21 85 -41 103 -45 59 -12 20 -28 -60 -23 -58 3 -90 12 -157 42 -78 36
-88 38 -148 32 -49 -5 -65 -3 -69 7 -3 8 -15 12 -34 9 -31 -4 -143 29 -178 54
l-23 16 20 32 c27 43 36 106 21 150 -11 35 -52 76 -74 76 -7 0 -6 -4 2 -9 10
-6 3 -17 -26 -43 -35 -32 -38 -39 -35 -77 2 -24 10 -56 18 -71 15 -29 15 -29
-20 -36 -31 -5 -34 -8 -23 -23 12 -14 11 -15 -5 -2 -10 8 -16 20 -13 28 4 8 1
11 -5 7 -8 -4 -9 1 -4 15 4 14 1 31 -9 46 -29 45 -12 116 36 149 12 9 18 16
12 16 -13 0 -47 -37 -63 -67 -15 -30 -14 -107 3 -148 13 -30 13 -34 -2 -38
-12 -3 -11 -5 5 -6 29 -1 50 -36 27 -45 -39 -15 -151 6 -186 34 -26 21 -19 37
9 21 11 -5 44 -12 74 -15 53 -5 53 -5 10 4 -24 5 -73 23 -109 40 -70 33 -92
36 -141 19 -30 -11 -32 -15 -27 -42 3 -16 6 -40 6 -54 0 -23 1 -23 22 -9 32
23 61 20 121 -11 61 -32 174 -43 239 -23 37 10 45 9 99 -17 51 -24 59 -31 54
-50 -5 -21 -2 -23 30 -23 40 0 99 -22 110 -41 6 -9 0 -11 -24 -6 -23 5 -30 3
-25 -5 5 -8 -1 -9 -22 -4 -28 7 -28 7 -10 -13 10 -11 50 -29 88 -41 39 -12 87
-30 107 -41 19 -10 48 -19 64 -19 35 0 85 -21 140 -58 49 -34 95 -114 101
-177 2 -22 11 -70 19 -106 26 -106 25 -144 -3 -174 -14 -15 -40 -36 -60 -47
-65 -39 -112 -92 -156 -180 -24 -48 -58 -103 -76 -124 -18 -20 -34 -48 -36
-62 -4 -31 -78 -128 -134 -176 -89 -76 -176 -94 -301 -61 -60 16 -171 67 -182
85 -13 20 53 32 175 31 155 -1 225 12 292 55 29 18 54 31 56 29 2 -2 -4 -17
-13 -35 -21 -41 -94 -86 -164 -101 -52 -11 -170 -8 -246 7 -22 4 -26 3 -15 -5
26 -18 146 -34 216 -29 39 3 92 15 121 28 57 24 133 98 132 127 0 13 -3 12
-10 -6 -5 -13 -12 -22 -14 -19 -11 11 8 39 41 59 19 11 34 23 34 25 0 7 -113
-52 -154 -79 -106 -73 -327 -53 -521 45 -133 67 -258 178 -224 199 11 7 10 9
-5 9 -13 0 -17 -5 -13 -20 7 -27 -3 -25 -81 14 -117 59 -292 197 -292 229 0
11 -67 98 -118 155 -25 28 -30 31 -21 12 22 -45 72 -114 123 -168 27 -29 46
-55 43 -58 -9 -10 209 -153 292 -193 43 -20 101 -57 130 -83 29 -27 51 -48 47
-48 -13 0 -245 103 -294 131 -29 16 -57 27 -63 24 -5 -4 -8 -2 -7 3 2 5 -34
34 -79 65 -46 31 -83 53 -83 49 1 -13 139 -115 217 -160 102 -59 272 -132 456
-193 84 -29 154 -54 157 -57 3 -2 -24 -2 -60 0 -115 9 -420 116 -552 193 -64
38 -297 260 -299 285 0 9 -2 10 -5 3 -14 -33 81 -147 184 -220 34 -25 60 -49
56 -54 -3 -5 4 -9 16 -9 12 0 49 -15 83 -34 75 -41 262 -115 372 -147 94 -26
91 -25 76 -42 -23 -28 -174 17 -453 137 -71 30 -128 51 -128 47 0 -3 71 -41
158 -83 159 -77 294 -126 411 -149 35 -7 94 -25 130 -41 l66 -29 -95 6 c-101
6 -280 39 -314 57 -11 6 -29 19 -40 29 -11 11 -25 19 -31 19 -25 0 -234 111
-275 147 -25 21 -58 47 -73 56 -15 10 -25 23 -21 29 4 7 3 8 -5 4 -12 -8 13
-52 48 -86 69 -67 212 -146 346 -191 69 -24 70 -24 35 -30 -28 -5 -23 -7 27
-8 34 0 95 -8 135 -17 40 -9 136 -19 213 -23 l140 -7 -60 -19 c-79 -26 -291
-27 -413 -1 -115 24 -115 13 0 -15 75 -18 122 -23 245 -23 l152 -1 -22 -25
c-12 -14 -23 -26 -23 -28 -1 -1 -21 -7 -45 -12 l-44 -9 45 1 c69 1 90 -1 90
-10 0 -11 -156 -47 -270 -62 -47 -7 -89 -16 -95 -21 -5 -5 -27 -9 -49 -9 l-39
0 19 23 18 22 -24 -23 c-36 -33 -27 -37 164 -67 36 -6 37 -7 20 -21 -16 -12
-14 -12 13 1 19 9 58 15 95 15 l63 -1 -55 -23 c-59 -24 -134 -69 -144 -85 -4
-6 31 8 78 30 46 21 89 39 96 39 6 0 8 5 4 12 -4 7 -3 8 4 4 6 -3 63 13 127
38 63 24 115 43 115 41 0 -1 -9 -23 -20 -48 -18 -40 -29 -50 -86 -77 -98 -47
-173 -71 -193 -61 -9 5 -56 5 -106 1 -55 -4 -92 -4 -96 2 -3 5 -9 2 -13 -8 -3
-9 -5 -19 -3 -21 8 -7 115 -8 176 0 l63 8 -22 -33 -23 -33 34 36 c20 21 58 45
92 57 31 12 80 34 109 48 41 21 52 23 59 12 6 -9 0 -21 -18 -37 -28 -24 -40
-55 -20 -48 7 2 12 9 12 15 0 6 7 17 15 24 12 11 12 11 1 -4 -20 -26 2 -22 27
5 12 13 19 27 15 31 -5 4 -3 6 2 5 6 -2 24 5 40 15 17 11 47 30 69 43 21 14
35 19 30 11 -38 -64 -56 -88 -63 -83 -5 2 -17 -8 -27 -23 -9 -15 -24 -32 -32
-38 -9 -6 -16 -18 -18 -27 -1 -9 -23 -43 -48 -75 -25 -33 -42 -62 -39 -66 4
-3 -1 -6 -9 -6 -13 0 -14 7 -5 43 8 36 17 48 54 71 24 16 42 30 39 33 -2 2
-23 -8 -45 -23 -23 -14 -55 -28 -73 -30 -17 -2 -60 -16 -96 -30 -35 -14 -66
-24 -67 -22 -2 2 41 29 97 59 60 33 102 63 104 73 1 9 -3 15 -9 13 -7 -2 -12
-9 -12 -15 0 -5 -4 -14 -9 -19 -5 -5 -6 -3 -2 5 4 6 5 12 2 12 -11 0 -182
-114 -201 -133 l-19 -21 -6 25 c-6 22 -7 22 -12 -9 -2 -18 -2 -34 1 -36 11 -7
110 24 177 54 37 16 68 29 70 28 1 -2 -3 -27 -8 -56 -6 -29 -8 -55 -5 -58 10
-10 100 45 151 92 50 47 66 52 46 13 -7 -12 -16 -35 -20 -50 -8 -27 -7 -29 18
-29 15 0 47 12 71 25 24 14 45 24 46 23 1 -2 10 -16 19 -33 10 -16 15 -21 11
-11 -6 20 -6 20 15 1 l22 -20 -44 -11 c-24 -6 -55 -17 -71 -23 -31 -12 -117
-95 -117 -112 0 -7 14 8 32 32 17 24 33 38 36 31 2 -7 9 -9 14 -6 7 4 8 2 4
-5 -4 -6 -12 -9 -17 -5 -11 7 -42 -63 -35 -81 5 -13 -3 -13 -89 -1 -22 3 -33
3 -25 0 20 -8 74 -73 67 -81 -4 -3 -37 6 -74 20 -54 20 -67 29 -65 43 2 11 10
24 17 30 12 9 11 13 -8 22 -54 29 -167 57 -129 34 9 -7 10 -15 3 -35 l-10 -27
-113 41 c-62 23 -121 43 -131 46 -18 6 -22 29 -8 53 6 8 7 18 4 23 -3 5 -18
-26 -33 -69 -38 -110 -73 -189 -78 -176 -2 6 -22 17 -44 22 -47 13 -47 12 12
164 22 55 37 102 35 105 -3 2 -12 -12 -20 -32 -14 -35 -16 -36 -47 -25 -56 19
-78 50 -43 61 11 3 10 4 -2 3 -13 -1 -17 -10 -16 -29 1 -15 0 -27 -1 -27 -2 0
-23 7 -46 15 -39 14 -46 14 -67 -1 -14 -9 -22 -21 -19 -30 3 -8 2 -14 -3 -14
-4 0 -6 -11 -4 -25 4 -17 15 -27 42 -36 50 -16 60 -27 38 -44 -10 -7 -17 -22
-15 -32 4 -21 78 -62 160 -89 32 -11 58 -23 58 -27 0 -4 -19 -17 -43 -27 -23
-11 -35 -20 -26 -20 9 0 31 10 50 23 l34 24 117 -41 116 -41 22 -52 c12 -29
26 -56 31 -59 5 -3 -1 15 -13 40 -12 25 -19 48 -16 52 7 7 54 -7 245 -73 119
-41 135 -49 154 -80 15 -24 20 -43 15 -66 l-5 -32 15 28 c11 21 12 32 4 48
-12 22 -8 35 8 25 14 -8 21 -55 9 -59 -5 -1 -1 -9 8 -17 17 -14 18 -13 11 22
-4 20 -2 39 3 42 18 12 52 -10 77 -49 23 -36 25 -33 8 10 -9 23 23 19 36 -4 5
-11 10 -39 10 -62 l0 -43 -41 39 c-22 22 -49 55 -61 73 -11 18 -23 31 -25 28
-6 -5 10 -27 71 -100 28 -33 36 -51 31 -63 -5 -10 -7 -22 -6 -26 3 -18 -33
-19 -45 -2 -13 18 -14 18 -14 -3 0 -14 6 -22 18 -22 13 -1 11 -6 -12 -26 -17
-15 -37 -24 -47 -21 -10 3 -19 1 -21 -5 -2 -5 -46 -24 -99 -42 -53 -18 -102
-37 -109 -41 -9 -5 -15 -4 -18 3 -2 7 -7 12 -11 12 -4 0 12 -50 37 -112 24
-62 46 -128 48 -148 2 -19 2 -30 -1 -24 -4 9 -17 8 -45 -3 -50 -20 -62 -11
-91 68 -26 70 -36 74 -13 5 9 -26 14 -49 12 -51 -2 -3 -12 18 -22 46 -11 30
-22 46 -26 39 -11 -17 -60 -1 -70 24 -11 29 -8 30 35 12 39 -17 39 -16 18 42
-11 26 8 10 22 -20 8 -18 13 -24 9 -13 -3 11 -8 34 -11 51 -5 29 -2 32 37 48
35 14 40 20 35 37 -5 16 -4 19 5 14 14 -9 10 1 -22 46 -14 21 -16 37 -12 72 6
39 3 46 -17 61 -13 9 -28 16 -34 16 -5 -1 2 -8 17 -16 21 -11 28 -22 28 -44 0
-30 -22 -60 -44 -60 -24 0 -26 13 -3 24 31 16 29 51 -3 51 -21 0 -25 -5 -25
-28 1 -32 -15 -30 -32 4 l-13 24 0 -23 c0 -13 12 -35 26 -49 21 -21 28 -41 34
-92 8 -72 3 -84 -43 -107 -28 -15 -30 -15 -56 17 -16 19 -33 30 -42 26 -11 -4
-11 -6 2 -6 16 -1 79 -72 79 -89 0 -14 -49 -44 -60 -37 -6 3 -10 12 -10 19 0
23 -36 61 -44 48 -4 -7 -1 -12 8 -12 24 0 19 -15 -9 -28 -37 -17 -48 -15 -42
8 3 11 1 23 -4 26 -13 8 -11 -44 3 -83 10 -29 10 -36 -2 -43 -20 -13 -26 -12
-44 5 -8 8 -19 15 -25 15 -6 0 -11 5 -11 11 0 5 4 7 10 4 12 -8 12 42 0 70 -7
16 -9 17 -9 3 -1 -9 -4 -18 -8 -21 -5 -2 -2 -2 5 -1 23 6 12 -36 -13 -48 -30
-14 -43 -4 -28 21 10 16 8 22 -9 37 -13 12 -18 13 -13 4 5 -8 10 -45 11 -82 2
-59 0 -68 -17 -73 -46 -15 -79 26 -45 54 8 7 12 21 8 34 -6 20 -7 19 -12 -8
-3 -19 -15 -34 -31 -42 l-26 -13 21 -60 c21 -59 21 -59 1 -75 -11 -8 -36 -20
-56 -26 -30 -9 -42 -8 -81 10 -26 11 -49 29 -51 38 -3 13 -5 12 -6 -5 -1 -15
11 -35 30 -53 26 -24 40 -29 80 -29 39 0 55 5 82 29 18 16 46 33 63 36 16 4
66 18 111 31 l81 25 51 -31 c63 -36 90 -38 120 -6 17 18 22 33 19 56 -4 23 0
34 14 41 18 10 86 16 91 8 47 -65 86 -140 82 -155 -4 -12 -1 -10 6 4 7 13 25
26 40 29 19 4 26 10 22 20 -3 8 -9 10 -12 5 -7 -12 -51 -26 -51 -17 0 4 11 16
25 27 18 14 25 28 24 51 l-2 32 -7 -35 -7 -35 -1 40 c0 85 -12 78 278 181 145
52 269 93 275 92 5 0 26 6 45 14 86 38 87 34 15 -49 -39 -44 -78 -90 -87 -102
-40 -49 -42 -16 -3 59 9 17 13 30 10 30 -9 0 -55 -103 -55 -123 0 -21 27 -16
108 19 28 13 52 20 52 17 0 -4 12 5 28 19 27 26 92 63 92 53 0 -3 -43 -64 -96
-136 -100 -135 -123 -180 -42 -81 26 31 70 82 97 112 l50 55 -6 -60 c-6 -61
-31 -105 -61 -105 -8 0 -26 -8 -40 -19 -15 -10 -51 -30 -79 -45 l-53 -26 -1
22 c-1 15 -4 10 -8 -12 -3 -19 -3 -36 1 -38 15 -7 116 45 166 86 47 38 53 41
48 20 l-6 -23 11 23 c15 28 29 29 29 2 0 -11 6 -23 14 -26 11 -4 6 -27 -26
-107 -61 -155 -56 -155 21 -2 38 77 85 158 104 179 l35 40 7 -46 c8 -55 2 -77
-30 -112 -13 -14 -44 -55 -70 -90 -50 -71 -117 -136 -139 -136 -10 0 -16 14
-19 43 -3 34 -4 31 -5 -18 -3 -99 6 -100 95 -9 43 43 96 111 118 149 l40 69 6
-44 c6 -42 6 -41 8 20 l1 65 30 -54 c21 -38 30 -70 32 -105 l1 -51 6 55 c3 30
10 53 16 51 6 -2 24 23 42 57 21 40 33 56 37 45 3 -8 6 -75 6 -149 0 -162 -19
-261 -59 -306 -28 -32 -56 -31 -66 3 -4 10 -11 19 -17 19 -6 0 -8 3 -5 7 4 3
2 12 -3 18 -6 7 -15 39 -20 71 l-9 59 4 -63 c5 -68 35 -150 66 -178 22 -20 41
-9 65 39 35 66 46 125 51 275 3 83 8 152 12 152 3 -1 24 -30 46 -67 46 -75
164 -203 189 -203 14 0 16 12 14 78 l-1 77 -6 -58 -6 -59 -34 24 c-19 13 -54
48 -78 78 -24 30 -59 73 -77 95 -58 70 -78 119 -69 171 l8 45 40 -52 c22 -29
71 -112 108 -184 73 -140 76 -140 20 2 -21 51 -40 88 -43 83 -4 -6 -12 2 -19
16 -11 24 -10 26 3 15 21 -17 46 -7 46 19 0 32 15 23 35 -20 10 -22 20 -38 22
-36 3 2 -3 18 -11 35 -9 16 -16 33 -16 36 0 4 26 -14 58 -38 84 -65 173 -104
171 -75 -2 26 -17 63 -18 46 -1 -26 -19 -22 -94 21 -37 22 -75 42 -86 46 -34
10 -48 39 -54 105 -5 62 -5 64 11 43 39 -49 175 -203 179 -203 5 0 -13 25
-122 175 -72 99 -71 97 -38 83 39 -16 87 -63 130 -125 20 -29 38 -53 41 -53 5
0 -21 43 -55 88 -28 38 -28 38 23 13 21 -10 56 -24 78 -29 l38 -11 -6 31 c-3
17 -13 45 -21 61 -8 17 -14 32 -12 33 4 4 377 -130 413 -149 16 -8 63 -25 104
-37 41 -13 110 -37 153 -54 66 -25 77 -33 77 -53 0 -13 11 -35 25 -49 21 -21
31 -24 62 -18 21 3 51 13 67 20 28 13 36 12 120 -22 58 -24 108 -37 141 -38
48 -1 50 0 50 27 -1 31 3 32 52 12 19 -8 39 -15 44 -15 20 0 49 42 49 71 0 27
-5 32 -50 51 -47 19 -68 48 -36 48 20 0 29 17 19 34 -4 8 -25 26 -45 40 -36
24 -38 24 -38 6 0 -11 5 -20 11 -20 6 0 9 -10 7 -22 -2 -18 -10 -24 -40 -26
l-37 -3 3 68 c1 38 6 75 11 83 8 13 6 13 -8 1 -9 -7 -17 -19 -17 -26 0 -7 -10
-12 -22 -11 -13 1 -23 7 -23 16 0 9 7 14 20 12 20 -4 20 -4 0 11 -24 19 -35 7
-35 -40 0 -42 -34 -80 -56 -62 -16 13 -19 45 -4 54 12 8 13 85 1 85 -5 0 -7
-10 -4 -21 6 -20 3 -21 -23 -15 -38 10 -42 15 -22 30 14 10 15 16 5 37 -17 34
-50 36 -75 5 -20 -27 -46 -34 -57 -16 -3 5 -12 10 -18 10 -9 0 -9 -2 1 -8 9
-7 8 -20 -7 -63 -44 -127 -73 -189 -85 -181 -6 5 -28 15 -48 21 l-37 12 15 41
c8 23 12 43 9 46 -3 3 -5 1 -5 -4 0 -5 -4 -15 -9 -23 -7 -11 -24 -8 -91 15
-70 25 -88 36 -122 77 -22 26 -38 47 -36 47 1 0 64 -22 138 -49 74 -28 135
-49 136 -48 2 1 13 31 27 67 21 57 28 65 48 62 19 -2 21 0 9 8 -8 5 -26 10
-40 10 -14 0 -20 -3 -13 -8 8 -5 8 -13 0 -33 l-12 -26 -197 71 c-171 61 -203
76 -238 111 -22 22 -36 41 -30 43 6 2 -1 10 -15 18 -36 18 -40 18 -19 -4 23
-22 298 -353 308 -370 9 -15 -97 30 -134 57 -23 16 -112 118 -261 299 -52 62
-58 73 -38 68 31 -9 4 8 -30 19 -22 7 -20 2 17 -41 23 -27 38 -50 34 -52 -5
-1 -53 14 -107 33 -54 20 -99 34 -102 32 -2 -3 51 -24 117 -47 106 -37 125
-48 155 -84 18 -22 32 -42 31 -43 -5 -6 -526 180 -526 187 0 4 19 13 43 19 35
10 50 9 86 -4 24 -8 46 -13 49 -11 2 3 -15 10 -38 17 -40 12 -41 13 -18 25 13
8 20 13 16 14 -6 0 -195 -66 -613 -215 -96 -34 -159 -51 -176 -48 -17 3 -69
-10 -140 -37 -63 -23 -118 -42 -124 -44 -5 -1 -32 -10 -60 -20 -27 -10 -80
-29 -117 -43 -37 -13 -69 -30 -71 -36 -3 -7 -14 8 -25 33 -15 33 -18 46 -9 51
7 3 312 113 679 244 368 131 666 240 664 242 -2 2 -138 -44 -302 -103 -165
-58 -407 -144 -539 -191 -132 -47 -302 -107 -378 -134 l-138 -49 -20 47 c-11
25 -17 48 -14 52 4 3 76 31 161 62 85 30 151 58 148 62 -6 6 139 167 157 175
4 2 23 -11 43 -29 30 -26 39 -29 51 -19 9 7 25 10 42 5 27 -6 27 -6 9 14 -11
12 -27 21 -36 21 -10 0 -29 15 -43 34 l-26 34 104 -37 c57 -20 107 -39 110
-43 4 -3 -11 -11 -32 -18 -21 -6 -44 -14 -52 -16 -8 -2 -12 -7 -9 -9 5 -5 149
43 158 52 3 3 -4 3 -15 0 -12 -4 -74 13 -151 41 -110 40 -136 53 -164 85 -18
21 -30 40 -27 43 3 3 88 -24 189 -59 249 -89 225 -77 197 -94 l-24 -14 25 7
c14 3 39 13 55 20 17 8 22 12 12 9 -10 -3 -123 32 -250 77 -216 75 -235 84
-269 122 -20 23 -37 44 -38 47 0 3 37 -7 81 -23 45 -16 84 -27 86 -25 2 3 -39
19 -92 37 -83 29 -100 39 -131 77 -19 24 -33 43 -31 43 2 0 30 -9 62 -20 32
-11 61 -18 63 -15 3 3 0 5 -6 5 -20 0 -13 51 14 115 30 71 32 80 19 80 -5 0
-9 -6 -9 -12 1 -7 -3 -10 -9 -6 -6 4 -8 0 -4 -11 4 -10 3 -15 -3 -11 -11 7
-36 -49 -46 -100 -4 -22 -12 -35 -21 -35 -35 0 11 140 67 204 18 20 28 36 22
36 -26 0 -94 -122 -108 -195 -3 -19 -10 -35 -15 -35 -11 0 -4 38 17 92 7 21
11 45 8 55 -4 13 -3 15 4 5 7 -11 10 -10 16 3 9 24 8 27 -6 19 -8 -4 -10 -3
-5 2 5 5 14 9 19 9 6 0 13 5 15 11 2 6 -4 11 -12 11 -23 0 -58 -75 -79 -169
-6 -25 -9 -27 -26 -16 -26 17 -25 24 10 94 26 54 110 152 95 112 -8 -19 22
-19 34 0 6 10 71 13 71 3 0 -3 -8 -13 -17 -23 -12 -13 -13 -22 -6 -29 8 -8 15
-4 27 12 27 39 29 13 2 -28 -26 -39 -56 -138 -56 -184 0 -25 7 -29 123 -69
148 -52 158 -55 135 -41 -15 10 -15 15 -1 56 16 48 24 53 42 31 9 -11 9 -20 2
-35 -6 -11 -11 -26 -10 -33 0 -7 5 -2 10 11 12 32 18 24 12 -17 -4 -26 -8 -30
-19 -21 -9 7 -14 8 -14 1 0 -6 30 -20 67 -33 100 -33 100 -33 84 -21 -15 11
-7 32 13 32 7 0 21 -7 32 -16 10 -8 14 -13 8 -10 -7 3 -17 -1 -24 -9 -10 -12
-10 -15 3 -15 17 0 94 -86 90 -101 -2 -5 2 -9 8 -9 5 0 7 -5 3 -11 -4 -8 1 -9
17 -4 37 12 59 26 28 19 -21 -4 -32 2 -63 41 -21 25 -37 48 -35 50 11 10 115
-43 124 -63 11 -24 31 -31 21 -7 -3 8 -1 15 3 15 5 0 11 -5 13 -10 2 -7 21 -4
51 6 43 14 48 19 43 40 -6 24 8 42 19 24 4 -6 11 -8 16 -5 5 3 6 -1 3 -9 -3
-9 -11 -16 -17 -16 -6 0 -8 -2 -5 -5 2 -3 33 5 68 17 58 19 62 22 39 30 -23 9
-23 10 -5 20 15 8 22 7 31 -6 11 -15 20 -13 103 16 86 30 91 34 85 57 -4 18
-3 22 7 16 10 -6 11 -4 6 11 -17 40 -17 51 -2 63 14 12 19 7 37 -34 22 -51 22
-55 -10 -58 -11 -1 -21 -5 -21 -10 0 -5 6 -7 13 -5 6 3 137 49 289 104 l277
98 -33 46 c-37 52 -122 113 -148 107 -10 -3 -18 -1 -18 4 0 5 -9 9 -20 9 -11
0 -20 3 -20 6 0 19 24 84 31 84 5 0 25 -9 46 -19 21 -11 51 -23 67 -27 28 -7
29 -6 23 22 -3 16 -9 38 -13 49 -5 14 4 10 32 -16 53 -49 95 -76 128 -85 32
-8 31 -14 9 98 l-5 27 51 -24 c28 -14 82 -34 121 -44 l70 -20 0 26 c0 19 -4
24 -17 19 -9 -4 -25 1 -37 12 -41 36 -187 123 -196 117 -6 -4 -9 -1 -8 6 2 6
-3 14 -11 17 -9 3 -11 0 -6 -9 5 -8 4 -11 -1 -6 -5 5 -9 12 -9 16 0 4 -13 20
-30 35 -19 18 -23 26 -12 22 10 -3 20 0 23 8 4 11 23 6 87 -25 44 -21 86 -39
93 -39 7 0 31 -21 55 -47 23 -27 39 -41 34 -33 -4 8 -17 26 -29 39 l-21 24 35
-6 c64 -12 208 -20 224 -14 15 6 15 9 1 37 -8 16 -18 30 -21 30 -2 0 0 -9 6
-19 5 -11 10 -21 10 -23 0 -2 -33 0 -72 5 -40 4 -107 10 -148 11 -63 2 -88 8
-159 41 -76 36 -85 43 -102 83 -11 25 -18 47 -16 49 2 2 57 -17 121 -42 65
-25 123 -42 129 -39 7 4 9 4 5 -1 -6 -6 102 -61 162 -81 41 -14 -35 33 -115
72 l-90 43 75 -6 c41 -3 84 -10 95 -16 18 -9 19 -9 6 6 -12 15 -10 17 23 17
39 0 166 28 179 40 4 3 -5 17 -20 31 l-28 24 24 -28 25 -27 -35 6 c-19 3 -47
10 -64 14 -16 5 -55 11 -85 15 -30 3 -97 15 -148 25 -175 37 -157 53 46 42 72
-4 132 -5 132 -2 0 3 30 14 67 24 70 18 162 61 201 93 l24 18 -24 20 c-22 19
-23 19 -6 0 17 -19 17 -20 -20 -31 -64 -21 -200 -80 -218 -95 -13 -10 -49 -14
-140 -14 l-124 0 -37 38 -38 37 35 -7 c68 -15 251 -7 349 16 127 28 137 43 14
19 -120 -24 -355 -22 -413 3 -35 15 -34 16 75 22 125 7 365 46 365 59 0 5 -10
6 -22 3 -13 -3 -52 -12 -88 -20 -36 -8 -112 -17 -170 -20 l-105 -6 60 26 c33
14 92 33 130 41 122 25 225 63 397 146 92 45 166 83 164 85 -2 2 -78 -27 -168
-65 -245 -104 -371 -142 -409 -121 -21 11 -8 17 132 63 145 48 392 156 414
181 6 7 33 28 60 48 80 57 188 178 172 193 -2 2 -33 -26 -69 -63 -148 -153
-186 -183 -302 -239 -159 -76 -372 -145 -466 -151 l-75 -4 145 49 c291 100
459 180 603 288 107 81 116 104 10 28 -81 -58 -290 -167 -392 -204 -36 -13
-57 -26 -51 -30 7 -5 -1 -12 -21 -19 -18 -6 -34 -9 -37 -7 -2 3 7 8 21 12 15
3 25 9 24 13 -5 16 105 102 166 129 56 26 142 79 262 162 47 33 177 194 209
260 l17 35 -33 -36 c-49 -53 -123 -153 -120 -162 8 -26 -168 -162 -293 -227
-85 -43 -105 -49 -85 -25 28 34 1 38 -155 22 -11 -1 -50 -19 -87 -39 -141 -78
-408 -181 -425 -165 -3 4 189 113 285 161 18 9 30 21 27 26 -3 5 3 8 12 8 16
-2 353 168 353 178 0 6 -38 -11 -220 -98 -215 -103 -391 -198 -384 -209 3 -5
-1 -6 -9 -3 -8 3 -18 1 -22 -5 -3 -6 -12 -11 -18 -11 -26 1 92 92 212 163 252
150 419 222 498 215 l38 -3 -51 -51 c-27 -28 -87 -75 -132 -104 -44 -30 -80
-56 -78 -58 2 -2 31 10 65 27 71 36 96 41 31 6 -25 -13 -41 -24 -37 -25 20 -1
261 130 352 191 100 68 230 177 221 186 -2 3 -35 -20 -73 -50 -112 -90 -405
-268 -419 -255 -2 3 43 38 101 78 58 40 149 113 201 162 53 48 103 88 111 88
9 0 13 3 10 6 -4 4 17 32 45 63 154 168 228 320 228 467 0 24 -3 44 -7 44 -5
0 -8 -30 -9 -68 -1 -91 -29 -156 -114 -272 -39 -52 -70 -92 -70 -88 0 3 7 22
15 41 26 64 15 64 -14 1 -66 -142 -166 -260 -319 -376 -58 -45 -91 -63 -64
-36 24 24 13 38 -30 38 l-42 0 75 51 c72 50 359 329 359 349 0 5 -39 -32 -87
-82 -123 -128 -308 -273 -422 -332 -43 -23 -39 -12 7 15 50 31 141 117 158
151 24 46 16 44 -14 -3 -29 -45 -82 -93 -159 -144 -24 -15 -40 -32 -36 -38 3
-5 1 -7 -4 -4 -17 11 -404 -210 -490 -280 -44 -35 -63 -36 -63 -3 0 31 245
202 547 381 78 46 140 85 138 87 -4 5 -182 -93 -327 -179 -159 -95 -299 -190
-293 -199 3 -5 0 -12 -6 -16 -8 -4 -9 -3 -5 4 12 19 -3 14 -42 -15 -20 -16
-33 -22 -28 -15 4 7 2 12 -5 12 -36 0 144 147 321 262 148 96 252 152 343 183
39 13 64 25 55 25 -9 0 -29 -5 -45 -10 -27 -10 -27 -9 -8 6 11 8 19 20 17 25
-1 6 2 8 8 4 25 -15 309 234 370 325 13 19 -30 -17 -96 -81 -104 -100 -232
-209 -248 -209 -2 0 11 24 30 53 48 73 216 241 291 292 35 23 61 44 58 47 -3
3 3 11 12 19 16 13 17 12 5 -3 -8 -10 -9 -17 -3 -20 15 -5 -25 -154 -55 -205
-28 -48 -127 -150 -198 -203 -41 -30 -58 -37 -86 -34 l-35 3 35 -9 c45 -12 76
8 203 130 86 82 120 105 184 124 16 5 23 2 26 -11 4 -14 5 -14 6 4 0 12 24 58
52 102 29 45 50 84 47 86 -2 3 -26 -25 -51 -63 -65 -93 -78 -107 -112 -119
-17 -6 -39 -14 -49 -19 -18 -7 -17 -2 7 40 15 27 24 53 20 59 -3 5 -1 7 5 3 6
-3 30 17 54 46 54 65 106 118 138 142 l25 18 -27 -16 c-31 -18 -42 -20 -33 -6
3 6 4 10 2 10 -2 0 -23 -26 -45 -57 -55 -76 -112 -141 -112 -127 -1 53 28 134
63 179 43 55 98 158 133 253 31 80 30 104 0 32 -32 -76 -64 -138 -97 -187 -31
-44 -36 -59 -17 -47 7 4 8 3 4 -5 -4 -6 -11 -9 -15 -7 -4 3 -31 -24 -61 -58
-50 -57 -159 -153 -148 -130 54 113 77 180 57 168 -5 -3 -9 -13 -9 -23 0 -10
-19 -56 -41 -101 -31 -62 -61 -102 -120 -161 -52 -52 -87 -79 -101 -79 -18 0
-20 -2 -8 -10 22 -14 -3 -53 -85 -135 -51 -51 -101 -87 -185 -134 -171 -96
-312 -192 -442 -304 -78 -66 -73 -44 7 33 35 35 61 68 58 73 -3 6 -1 7 5 3 6
-4 44 20 84 52 103 83 245 186 373 271 129 87 153 107 70 61 -93 -51 -271
-170 -390 -260 -129 -97 -166 -130 -159 -141 3 -5 -1 -6 -8 -4 -7 3 -38 -19
-68 -50 -57 -57 -70 -65 -70 -40 0 20 169 194 258 266 156 126 348 242 470
285 37 13 58 24 47 24 -11 0 -56 -16 -99 -35 -79 -34 -121 -41 -53 -9 20 10
34 21 31 26 -3 4 12 18 32 30 21 12 32 24 26 26 -6 2 -1 18 14 39 13 20 24 40
24 46 0 6 10 22 22 36 13 14 16 20 8 14 -19 -17 -28 -16 -33 5 -3 9 -5 2 -6
-16 -3 -82 -93 -178 -304 -325 -69 -48 -159 -114 -201 -147 -75 -61 -246 -235
-246 -251 0 -5 -5 -9 -11 -9 -20 0 -1 58 37 116 50 76 146 160 358 315 99 73
205 152 234 176 84 72 80 89 -5 20 -43 -34 -133 -100 -200 -146 -68 -46 -120
-87 -118 -92 3 -4 0 -11 -6 -15 -8 -4 -9 -3 -5 4 16 26 -13 9 -90 -52 -92 -73
-152 -139 -208 -228 l-38 -63 4 55 c3 30 13 72 23 93 26 55 107 141 184 194
68 48 98 73 71 58 -45 -24 -141 -100 -187 -147 -72 -74 -104 -141 -106 -224
-2 -72 -5 -67 72 -117 44 -28 73 -77 73 -123 0 -40 -20 -67 -64 -85 -27 -11
-29 -14 -12 -20 26 -10 166 -11 160 -1 -2 4 11 6 31 4 27 -4 34 -1 28 8 -5 9
-4 11 4 6 17 -11 112 14 104 27 -4 6 0 8 10 4 9 -3 46 5 82 18 79 30 229 104
223 111 -3 2 -40 -12 -82 -31 -164 -75 -386 -136 -483 -134 l-48 1 50 9 c77
15 138 36 290 104 77 34 169 72 205 84 72 25 160 39 160 25 0 -20 -64 -86
-125 -129 -132 -94 -306 -155 -445 -155 -77 0 -168 20 -192 43 -21 19 -99 60
-105 54 -11 -12 19 -75 51 -106 48 -47 66 -30 21 20 -32 35 -44 59 -30 59 3 0
23 -12 44 -26 65 -43 122 -54 270 -54 132 0 211 -11 211 -30 0 -16 -142 -78
-215 -95 -101 -24 -160 -14 -238 38 -66 45 -167 165 -167 198 0 17 3 18 20 9
34 -18 22 -3 -15 19 -19 11 -53 48 -75 82 -22 34 -40 58 -40 52 0 -5 23 -42
50 -81 28 -39 50 -76 50 -81 0 -6 -11 -6 -30 -1 -29 8 -170 140 -170 160 0 25
31 5 75 -47 25 -32 56 -64 67 -71 11 -8 -3 14 -31 49 -37 45 -49 69 -45 84 4
14 2 16 -4 7 -14 -20 -62 -5 -62 20 0 10 5 16 10 13 6 -3 10 -2 10 4 0 5 -5
13 -10 16 -18 11 -130 145 -130 156 0 5 28 -10 61 -33 50 -35 67 -54 90 -103
16 -33 29 -54 29 -47 0 7 -5 22 -11 34 -6 11 -8 22 -5 25 3 4 15 -15 26 -40
24 -55 37 -64 15 -11 -25 60 -53 92 -130 145 -104 72 -106 75 -84 179 11 47
23 114 28 150 5 36 16 79 25 97 35 66 145 142 209 143 16 0 52 11 82 24 29 14
78 32 108 41 30 9 65 27 78 42 23 25 23 25 2 14 -27 -14 -46 -14 -38 -1 4 6
-6 7 -26 3 -24 -5 -30 -3 -24 6 11 19 70 41 110 41 32 0 35 2 29 24 -5 20 -1
26 28 35 18 6 44 20 57 30 22 17 28 18 64 5 68 -24 162 -18 242 16 79 34 93
36 121 15 27 -21 31 -19 26 14 -2 16 1 38 8 50 10 19 8 23 -24 36 -50 21 -73
19 -141 -14 -33 -16 -67 -31 -75 -35 -16 -6 20 -1 68 11 24 5 26 4 14 -10 -28
-33 -137 -61 -199 -50 -28 4 -31 7 -20 24 6 10 21 19 32 19 15 0 17 3 7 9 -11
7 -11 17 3 56 10 30 13 60 9 79 -7 36 -44 106 -56 106 -4 0 4 -17 18 -37 26
-39 28 -75 6 -133 -5 -14 -7 -31 -4 -39 3 -8 0 -11 -7 -7 -6 4 -9 2 -5 -7 8
-21 -17 -35 -46 -26 l-25 9 26 -4 c26 -3 34 14 14 31 -4 4 -5 3 -2 -3 4 -7 -5
-11 -23 -12 l-29 -1 22 36 c11 20 22 54 23 76 2 36 -3 45 -39 79 -23 21 -44
38 -48 38 -16 0 -49 -59 -55 -98 -5 -32 -1 -52 20 -98 14 -31 25 -58 24 -59
-31 -26 -146 -65 -190 -65 -21 0 -38 -5 -38 -10 0 -6 -25 -8 -68 -4 -65 6 -74
4 -153 -32 -90 -41 -198 -57 -235 -35 -18 10 -18 10 3 11 11 0 65 22 120 50
110 55 185 75 252 66 45 -6 46 -6 18 9 -31 16 -103 13 -157 -8 -46 -17 -80
-25 -80 -19 0 6 52 34 70 38 3 0 18 4 34 9 40 11 76 12 104 3 17 -6 22 -4 22
10 0 9 8 31 18 47 35 57 39 116 8 128 -7 3 -13 -1 -13 -9 0 -7 6 -15 14 -18
16 -6 18 -26 2 -26 -15 0 -64 -62 -61 -77 4 -18 -13 -16 -28 2 -10 12 -10 18
0 30 7 9 8 15 2 15 -12 0 -26 -29 -23 -50 1 -12 0 -12 -7 -2 -9 13 -7 40 7
112 1 3 6 -2 12 -10 8 -12 9 -10 4 8 -4 13 -1 29 5 37 16 20 0 19 -28 -1 -12
-8 -20 -20 -16 -25 3 -5 0 -8 -8 -7 -8 2 -14 -9 -16 -32 -2 -19 -8 -41 -14
-47 -8 -10 -6 -13 8 -13 15 0 16 -2 5 -12 -11 -10 -14 -10 -18 0 -3 6 -14 12
-25 12 -10 0 -34 16 -52 35 -25 27 -41 35 -67 35 l-34 0 33 -20 c37 -23 46
-25 36 -8 -4 7 -3 8 4 4 18 -11 14 -26 -5 -26 -13 0 -14 -3 -5 -12 8 -8 15 -8
29 3 16 12 17 12 6 -2 -10 -12 -9 -20 3 -38 22 -30 11 -38 -17 -12 -13 12 -27
21 -33 21 -5 0 1 -10 14 -22 16 -15 19 -23 11 -26 -8 -3 -16 -1 -20 4 -3 5
-13 9 -21 9 -10 0 -14 8 -12 23 2 12 -1 22 -6 22 -5 0 -9 -6 -8 -12 0 -7 -3
-13 -9 -13 -5 0 -9 9 -7 20 2 16 -3 20 -23 20 -14 -1 -28 -4 -31 -8 -14 -14
11 -50 65 -91 44 -34 61 -42 70 -33 6 6 11 8 11 3 0 -12 -27 -36 -42 -36 -25
0 -115 59 -148 96 -38 44 -74 121 -85 181 -7 47 -7 47 57 58 34 5 38 10 54 58
12 36 33 67 71 105 29 29 53 56 53 59 0 3 11 18 24 34 47 56 42 160 -11 213
-20 20 -28 24 -35 14 -6 -10 -8 -9 -8 3 0 22 -50 35 -61 17 -11 -17 -11 -26 1
-33 6 -3 14 3 18 15 7 20 9 20 22 5 12 -14 12 -18 -1 -26 -23 -14 -45 -10 -65
12 -16 17 -16 22 -4 30 11 8 2 9 -32 6 -34 -3 -60 -14 -92 -38 -24 -19 -43
-36 -43 -39 1 -3 -11 -34 -27 -69 -25 -55 -30 -61 -43 -49 -12 13 -12 22 6 68
11 29 26 57 33 62 9 5 7 8 -6 8 -16 0 -17 3 -8 12 7 7 12 27 12 45 0 29 -3 33
-25 33 -17 0 -25 6 -25 18 0 9 -3 28 -7 41 -5 20 -3 23 10 18 13 -5 17 -1 17
18 0 24 -12 30 -47 26 -7 -1 -13 5 -13 14 0 12 6 15 21 10 15 -5 19 -4 15 4
-8 12 -45 15 -47 4z m61 -53 c0 -5 -4 -10 -10 -10 -5 0 -10 5 -10 10 0 6 5 10
10 10 6 0 10 -4 10 -10z m-30 -35 c0 -8 -4 -15 -10 -15 -5 0 -10 7 -10 15 0 8
5 15 10 15 6 0 10 -7 10 -15z m-24 -102 c-3 -3 -13 -2 -23 2 -17 7 -17 8 2 15
19 7 34 -5 21 -17z m64 7 c0 -5 -9 -10 -21 -10 -11 0 -17 5 -14 10 3 6 13 10
21 10 8 0 14 -4 14 -10z m-320 -19 c0 -5 -7 -14 -15 -21 -12 -10 -15 -9 -15 6
0 16 -2 17 -10 4 -5 -8 -10 -10 -10 -4 0 6 3 14 7 17 9 10 43 8 43 -2z m84
-32 c-4 -7 -10 -6 -18 2 -6 7 -18 19 -26 27 -10 8 -4 8 18 -3 18 -9 30 -21 26
-26z m426 31 c0 -5 -4 -10 -10 -10 -5 0 -10 5 -10 10 0 6 5 10 10 10 6 0 10
-4 10 -10z m-543 -46 c-2 -3 -16 1 -31 7 -19 9 -23 15 -15 25 8 10 15 8 31 -8
11 -11 18 -22 15 -24z m362 30 c10 -10 -25 -34 -51 -34 -55 0 -91 34 -45 43
22 5 88 -1 96 -9z m-305 -3 c3 -5 -2 -12 -11 -15 -12 -5 -14 -9 -5 -18 9 -9
15 -9 24 0 9 9 17 3 35 -23 28 -42 29 -49 2 -35 -11 7 -18 17 -16 25 4 9 -1
11 -14 8 -10 -3 -26 0 -34 7 -9 7 -18 11 -21 8 -3 -3 20 -20 51 -37 30 -17 55
-35 55 -39 -1 -4 -11 -19 -23 -34 -22 -27 -22 -27 -46 -7 -22 18 -23 20 -6 45
9 14 15 28 12 30 -2 3 -12 -7 -21 -21 -19 -28 -33 -31 -59 -10 -18 13 -17 16
20 69 38 56 47 63 57 47z m456 -1 c0 -5 -4 -10 -10 -10 -5 0 -10 5 -10 10 0 6
5 10 10 10 6 0 10 -4 10 -10z m74 -9 c16 -17 15 -19 -8 -35 -14 -9 -30 -16
-35 -16 -14 0 -23 18 -15 31 4 8 9 7 15 -2 7 -12 10 -12 21 0 10 11 10 14 1
18 -15 5 -18 23 -5 23 5 0 16 -8 26 -19z m156 -52 c0 -5 -4 -9 -10 -9 -5 0
-10 4 -10 8 0 5 -7 17 -16 28 -16 19 -16 13 2 -30 3 -9 -4 -16 -22 -20 -22 -6
-32 -3 -46 16 -10 13 -18 26 -18 29 0 10 51 30 61 24 5 -4 9 0 9 7 1 14 50
-38 50 -53z m-797 40 c41 -11 45 -23 19 -56 -13 -16 -22 -19 -39 -12 -13 4
-23 15 -23 23 0 21 17 29 24 11 7 -20 28 -19 24 1 -2 8 -7 14 -12 14 -5 -1
-12 4 -17 11 -5 9 -11 5 -20 -14 -12 -27 -29 -36 -29 -16 0 15 19 49 28 49 4
0 24 -5 45 -11z m202 -19 c3 -5 2 -10 -4 -10 -5 0 -13 5 -16 10 -3 6 -2 10 4
10 5 0 13 -4 16 -10z m85 -1 c0 -5 3 -8 8 -6 4 3 8 -5 9 -16 6 -63 16 -97 29
-97 8 0 13 5 12 11 -2 6 3 14 10 16 6 3 12 -2 12 -10 0 -9 5 -17 12 -19 17 -6
0 -28 -21 -28 -10 0 -24 7 -31 15 -7 9 -15 13 -18 10 -7 -7 -70 117 -65 128 6
11 43 8 43 -4z m250 1 c0 -5 -4 -10 -10 -10 -5 0 -10 5 -10 10 0 6 5 10 10 10
6 0 10 -4 10 -10z m-193 -31 c0 -17 6 -35 14 -40 8 -5 9 -9 3 -9 -16 0 -30 20
-38 53 -5 19 -3 27 7 27 9 0 14 -12 14 -31z m49 9 c-3 -13 -6 -26 -6 -30 0 -5
-4 -8 -9 -8 -4 0 -8 13 -7 30 1 18 6 30 15 30 9 0 11 -7 7 -22z m289 -9 c9
-17 15 -32 13 -34 -10 -8 -50 -26 -52 -23 -36 48 -37 52 -14 70 31 24 35 23
53 -13z m-114 -12 c-11 -12 -23 -19 -25 -16 -9 9 25 50 36 43 6 -4 2 -14 -11
-27z m-201 13 c0 -5 -4 -10 -10 -10 -5 0 -10 5 -10 10 0 6 5 10 10 10 6 0 10
-4 10 -10z m170 6 c0 -3 -4 -8 -10 -11 -5 -3 -10 -1 -10 4 0 6 5 11 10 11 6 0
10 -2 10 -4z m-310 -16 c0 -5 -4 -10 -10 -10 -5 0 -10 5 -10 10 0 6 5 10 10
10 6 0 10 -4 10 -10z m280 0 c0 -5 -2 -10 -4 -10 -2 0 -12 -3 -22 -7 -16 -6
-17 -5 -4 10 17 19 30 22 30 7z m-583 -22 c-3 -8 -6 -5 -6 6 -1 11 2 17 5 13
3 -3 4 -12 1 -19z m690 -50 c-12 -10 -26 -18 -32 -17 -10 0 -50 48 -43 53 49
37 52 38 75 9 l23 -28 -23 -17z m-633 49 c15 -11 16 -17 5 -40 -10 -21 -17
-26 -33 -21 -29 9 -29 9 -21 43 7 33 21 38 49 18z m807 -13 c5 -15 8 -28 7
-29 -2 -1 -13 -7 -25 -14 -20 -10 -24 -8 -38 18 -19 37 -19 39 3 44 35 9 43 6
53 -19z m-546 4 c4 4 5 -3 2 -16 -3 -15 0 -25 9 -29 17 -6 18 -29 2 -39 -6 -4
-8 -3 -4 4 3 6 -1 17 -10 26 -8 9 -12 20 -9 26 3 6 -1 13 -9 16 -9 3 -16 11
-16 16 0 7 5 6 13 -1 8 -6 17 -7 22 -3z m275 8 c0 -3 -4 -8 -10 -11 -5 -3 -10
-1 -10 4 0 6 5 11 10 11 6 0 10 -2 10 -4z m-34 -33 c-10 -10 -19 5 -10 18 6
11 8 11 12 0 2 -7 1 -15 -2 -18z m239 -4 c15 -29 15 -32 -2 -45 -26 -20 -38
-17 -53 11 -17 33 -24 25 -9 -9 11 -23 10 -28 -7 -41 -10 -8 -24 -15 -30 -15
-14 0 -37 51 -27 60 8 8 106 69 110 70 1 0 10 -14 18 -31z m-682 10 c12 -7 23
-13 25 -14 2 -2 -4 -17 -13 -34 -15 -31 -16 -31 -45 -16 -30 15 -30 16 -15 45
18 34 18 34 48 19z m171 -27 c10 -19 11 -33 5 -45 -8 -13 -6 -15 6 -11 9 4 15
1 16 -7 1 -8 3 -26 5 -42 3 -27 3 -27 -21 -10 -14 10 -25 22 -25 28 0 5 5 4
12 -3 7 -7 16 -12 22 -12 5 0 -5 16 -24 35 -19 19 -40 35 -47 35 -17 0 -16 6
3 35 21 32 30 31 48 -3z m363 -37 c29 -54 30 -60 15 -72 -22 -16 -29 -16 -35
1 -4 10 -1 13 7 10 20 -8 32 17 14 30 -8 6 -13 17 -11 24 6 15 -19 16 -35 0
-9 -9 -15 -9 -23 -1 -15 15 8 76 25 70 6 -2 25 -30 43 -62z m-447 9 c0 -2 -5
-15 -12 -29 -13 -28 -26 -31 -52 -12 -17 13 -17 15 -2 45 16 31 17 32 41 16
14 -9 25 -18 25 -20z m340 16 c0 -5 -5 -10 -11 -10 -5 0 -7 5 -4 10 3 6 8 10
11 10 2 0 4 -4 4 -10z m-142 -18 c16 -11 12 -61 -5 -55 -7 3 -13 9 -13 14 0 5
-7 9 -15 9 -8 0 -15 5 -15 10 0 6 7 10 16 10 8 0 12 5 9 10 -7 12 5 13 23 2z
m82 -2 c0 -5 7 -10 15 -10 8 0 15 -5 15 -12 0 -6 10 -3 21 8 22 19 22 19 8 -3
-10 -16 -20 -21 -36 -17 -13 4 -23 2 -23 -5 0 -6 -7 -8 -15 -5 -23 9 -18 54 7
54 4 0 8 -4 8 -10z m-392 -25 c-8 -8 -48 8 -42 16 3 5 14 4 25 -2 12 -6 19
-12 17 -14z m732 13 c0 -8 -14 -14 -33 -15 l-32 -2 25 14 c31 18 40 18 40 3z
m-590 -8 c0 -5 -4 -10 -10 -10 -16 0 -12 -30 5 -36 8 -4 12 -10 9 -15 -7 -12
-17 -11 -38 4 -18 13 -18 15 -1 40 17 27 35 36 35 17z m350 -9 c0 -5 -7 -14
-15 -21 -16 -14 -18 -10 -9 14 6 17 24 22 24 7z m-505 -11 c4 -6 11 -8 16 -5
5 4 9 2 9 -4 0 -17 -20 -23 -35 -11 -8 7 -15 16 -15 21 0 12 17 11 25 -1z
m730 1 c3 -5 -2 -17 -11 -25 -17 -18 -34 -13 -34 10 0 8 4 13 9 9 5 -3 12 -1
16 5 8 12 12 13 20 1z m-675 -21 c0 -5 7 -7 15 -4 17 7 21 -11 5 -21 -6 -4 -8
-11 -5 -16 10 -14 -21 -10 -34 5 -6 7 -9 21 -5 30 7 17 24 22 24 6z m446 -16
c-30 -21 -45 -16 -16 6 14 10 27 16 30 13 3 -2 -4 -11 -14 -19z m174 -5 c0
-10 -2 -19 -4 -19 -2 0 -12 -3 -22 -7 -11 -4 -15 -3 -11 4 4 6 0 13 -8 17 -8
3 -15 2 -15 -3 0 -5 -10 -11 -22 -14 -20 -5 -19 -3 7 19 17 13 36 22 43 19 6
-2 12 0 12 6 0 6 5 7 10 4 6 -3 10 -15 10 -26z m-380 5 c0 -8 -4 -12 -10 -9
-5 3 -10 10 -10 16 0 5 5 9 10 9 6 0 10 -7 10 -16z m136 -11 c-10 -10 -19 5
-10 18 6 11 8 11 12 0 2 -7 1 -15 -2 -18z m-42 -4 c-3 -6 3 -13 15 -16 12 -3
21 -10 21 -15 0 -6 -11 -7 -25 -4 -14 4 -25 2 -25 -4 0 -5 9 -10 20 -10 20 0
27 -14 12 -23 -11 -7 -49 27 -45 40 2 6 -1 14 -6 18 -6 3 -11 -2 -11 -12 -1
-27 -26 -56 -41 -47 -9 5 -6 10 9 15 12 5 22 13 22 19 0 6 -4 9 -9 6 -5 -3
-34 -7 -65 -9 -49 -3 -56 -1 -56 15 0 15 3 17 19 8 26 -13 57 -13 84 2 32 17
57 20 57 5 0 -8 3 -7 9 3 6 8 7 18 4 24 -3 5 -1 6 6 2 6 -4 9 -12 5 -17z
m-263 -6 c12 -14 12 -16 0 -8 -9 5 -19 2 -29 -11 -14 -18 -14 -18 -8 -1 3 10
6 23 6 28 0 15 16 10 31 -8z m62 -34 c-14 -14 -113 -39 -113 -29 0 4 13 10 29
13 16 3 36 14 46 23 14 15 18 15 26 3 7 -11 9 -10 10 6 0 12 3 15 6 7 3 -8 1
-18 -4 -23z m314 5 c-3 -3 -16 -4 -29 -2 l-23 5 25 10 c23 10 41 1 27 -13z
m33 16 c0 -5 -4 -10 -10 -10 -5 0 -10 5 -10 10 0 6 5 10 10 10 6 0 10 -4 10
-10z m71 -37 c16 -3 29 -9 29 -14 0 -4 -21 -1 -47 8 -57 19 -57 19 -48 32 4 8
11 6 22 -4 8 -9 28 -19 44 -22z m-331 -18 c14 0 24 -5 23 -11 -1 -7 5 -11 14
-10 9 0 18 -5 20 -11 4 -12 -18 -8 -77 14 -29 11 -39 11 -37 0 1 -6 -8 -13
-20 -15 -13 -2 -23 1 -23 7 0 13 62 41 70 32 3 -3 16 -6 30 -6z m220 4 c0 -6
-9 -9 -20 -6 -10 3 -18 0 -17 -5 3 -17 -59 -30 -95 -20 -18 4 -32 12 -30 18 3
13 47 12 45 -1 -1 -6 7 -11 17 -11 10 0 18 5 17 10 -2 9 34 23 66 25 9 1 17
-4 17 -10z m80 -16 c0 -3 -9 -3 -20 0 -14 3 -20 0 -20 -10 0 -11 -7 -14 -25
-11 -14 3 -25 1 -25 -3 0 -5 -8 -9 -17 -9 -15 0 -13 4 7 20 14 10 34 21 45 22
22 4 55 -2 55 -9z m-426 -18 c-9 -14 -25 -25 -36 -25 -26 0 -18 24 10 28 12 2
22 8 22 13 0 5 5 9 10 9 6 0 3 -11 -6 -25z m101 -5 c3 -5 -1 -10 -9 -10 -9 0
-16 5 -16 10 0 6 4 10 9 10 6 0 13 -4 16 -10z m363 -8 c3 -9 -3 -13 -19 -10
-12 1 -24 9 -27 16 -3 9 3 13 19 10 12 -1 24 -9 27 -16z m-438 -6 c0 -2 -7 -7
-16 -10 -8 -3 -12 -2 -9 4 6 10 25 14 25 6z m228 -31 c2 -18 -3 -20 -48 -21
-48 0 -50 1 -48 26 2 24 4 25 47 20 36 -4 47 -9 49 -25z m-118 -11 c0 -14 -4
-23 -8 -20 -11 7 -29 -25 -26 -47 1 -9 -2 -15 -7 -11 -5 3 -9 -1 -10 -8 -1
-12 -10 15 -26 79 -5 22 -1 24 65 32 7 0 12 -10 12 -25z m189 20 c21 -5 31
-12 31 -25 0 -11 -4 -19 -9 -19 -5 0 -11 -10 -13 -22 -3 -23 -4 -23 -31 6 -26
28 -37 66 -18 66 5 0 23 -3 40 -6z m-282 -30 c-2 -2 -12 -1 -22 3 -18 6 -18 7
1 13 17 7 33 -5 21 -16z m347 5 c-8 -14 -24 -10 -24 6 0 9 6 12 15 9 8 -4 12
-10 9 -15z m-119 -66 c33 -160 82 -250 167 -308 45 -30 48 -34 27 -37 l-24 -4
28 -14 c15 -7 27 -16 27 -20 0 -8 -104 -108 -135 -130 -22 -16 -70 -88 -63
-95 2 -2 12 11 23 30 10 19 24 35 32 35 9 0 3 -19 -19 -62 -42 -80 -44 -89
-18 -58 12 14 33 47 47 73 13 27 27 47 29 44 10 -10 -55 -125 -85 -150 -16
-13 -28 -27 -25 -30 3 -3 -5 -25 -17 -48 -15 -31 -17 -40 -6 -31 8 7 25 32 36
55 26 54 49 82 58 73 11 -10 -27 -74 -74 -125 -35 -38 -44 -43 -53 -31 -8 12
-10 12 -10 1 0 -10 -9 -12 -32 -7 -33 6 -33 6 -12 -12 24 -19 35 -64 25 -102
-7 -24 -16 2 -44 117 -2 7 -13 23 -24 35 -31 34 -63 90 -63 112 0 18 1 18 20
1 11 -10 22 -27 26 -39 8 -24 54 -95 54 -83 0 4 -7 22 -16 38 -8 17 -13 37
-10 45 3 8 0 14 -7 14 -7 0 -25 12 -39 28 -29 31 -82 142 -67 142 5 0 9 -6 9
-13 0 -17 69 -127 80 -127 5 0 -7 26 -26 57 -33 56 -45 101 -23 87 17 -10 91
-172 84 -183 -3 -5 -1 -12 5 -16 40 -25 -53 180 -101 221 -67 58 -139 127
-139 134 0 4 12 13 28 20 22 10 24 14 10 19 -13 5 -5 16 40 51 68 54 113 133
137 244 l17 76 59 0 c56 0 59 -1 64 -27z m910 -20 c-19 -46 -25 -52 -25 -27 0
18 26 64 36 64 2 0 -3 -17 -11 -37z m-2007 -75 c-2 -17 -8 -33 -14 -35 -15 -5
-23 48 -11 78 8 22 9 22 18 6 6 -9 9 -32 7 -49z m2092 12 c0 -53 -15 -67 -26
-25 -7 30 2 75 16 75 6 0 10 -22 10 -50z m-1547 -6 c-4 -11 -7 -11 -19 1 -19
19 -18 24 5 18 12 -3 17 -11 14 -19z m-76 -26 c-3 -8 -6 -5 -6 6 -1 11 2 17 5
13 3 -3 4 -12 1 -19z m1243 -28 c0 -5 -2 -10 -4 -10 -3 0 -8 5 -11 10 -3 6 -1
10 4 10 6 0 11 -4 11 -10z m-1165 -10 c3 -5 -1 -10 -9 -10 -9 0 -16 5 -16 10
0 6 4 10 9 10 6 0 13 -4 16 -10z m175 0 c0 -5 -4 -10 -10 -10 -5 0 -10 5 -10
10 0 6 5 10 10 10 6 0 10 -4 10 -10z m640 -6 c0 -8 -4 -12 -10 -9 -5 3 -10 10
-10 16 0 5 5 9 10 9 6 0 10 -7 10 -16z m180 6 c0 -5 -4 -10 -10 -10 -5 0 -10
5 -10 10 0 6 5 10 10 10 6 0 10 -4 10 -10z m-1105 -20 c3 -5 1 -10 -4 -10 -6
0 -11 5 -11 10 0 6 2 10 4 10 3 0 8 -4 11 -10z m-763 -13 c-12 -6 -31 -5 -49
1 -26 9 -24 10 20 9 38 -1 44 -3 29 -10z m828 3 c0 -5 -5 -10 -11 -10 -5 0 -7
5 -4 10 3 6 8 10 11 10 2 0 4 -4 4 -10z m1074 1 c3 -5 -1 -12 -10 -15 -27 -11
-37 -7 -24 9 14 17 26 19 34 6z m881 -1 c-3 -5 -21 -10 -38 -10 -24 0 -28 3
-17 10 20 13 63 13 55 0z m-1977 -26 c15 -4 33 -8 41 -10 8 -1 17 -8 21 -14 4
-7 10 -11 14 -11 19 3 26 0 26 -10 0 -6 -5 -7 -12 -2 -13 8 -33 13 -55 15 -7
1 -13 5 -13 9 0 4 -8 8 -17 8 -10 -1 -36 2 -58 5 -22 2 -44 5 -50 6 -5 0 -4 4
2 8 15 9 61 7 101 -4z m127 -23 c3 -5 -8 -4 -24 2 -17 6 -28 15 -25 19 6 9 39
-6 49 -21z m905 18 c0 -6 -7 -9 -15 -5 -8 3 -15 1 -15 -4 0 -6 -5 -10 -11 -10
-8 0 -8 5 1 15 15 17 40 20 40 4z m1683 -44 c-3 -9 -8 -14 -10 -11 -3 3 -2 9
2 15 9 16 15 13 8 -4z m-2588 -5 c3 -5 1 -10 -4 -10 -6 0 -11 5 -11 10 0 6 2
10 4 10 3 0 8 -4 11 -10z m-469 -38 c-4 -3 -14 2 -24 12 -16 18 -16 18 6 6 13
-6 21 -14 18 -18z m1814 13 c-7 -8 -18 -15 -24 -15 -6 0 -2 7 8 15 25 19 32
19 16 0z m-1653 -37 c39 -41 108 -188 88 -188 -7 0 -15 4 -17 8 -6 14 -72 59
-98 67 -14 4 -39 23 -57 42 -18 19 -48 39 -68 44 -30 9 -34 13 -24 25 14 17
62 32 110 33 27 1 42 -6 66 -31z m403 17 c0 -8 -6 -15 -14 -15 -17 0 -28 14
-19 24 12 12 33 6 33 -9z m680 5 c8 -5 11 -12 8 -16 -10 -9 -38 3 -38 16 0 12
10 13 30 0z m546 -15 c29 -19 23 -35 -12 -35 -17 0 -37 -13 -57 -36 -18 -19
-51 -44 -75 -54 -24 -11 -60 -34 -79 -51 -19 -16 -37 -28 -39 -26 -4 4 16 48
61 139 8 15 12 37 10 48 -2 11 1 20 7 20 5 0 7 -8 4 -17 -5 -11 3 -7 21 10 26
26 33 28 81 23 30 -2 65 -12 78 -21z m1234 12 c0 -2 -10 -12 -22 -23 l-23 -19
19 23 c18 21 26 27 26 19z m-2720 -17 c-8 -5 -12 -10 -8 -10 3 0 14 -3 24 -7
12 -4 15 -3 10 6 -5 7 9 4 31 -7 62 -32 152 -55 192 -49 34 5 41 1 115 -69 44
-41 73 -74 64 -74 -43 0 -120 34 -176 80 -34 27 -65 50 -68 50 -4 0 10 -18 31
-41 47 -52 84 -131 77 -165 -5 -25 -5 -25 -49 23 l-44 48 43 -57 c23 -32 46
-58 50 -58 4 0 11 -18 14 -40 4 -22 11 -43 16 -46 9 -6 2 56 -12 114 -10 37 2
42 24 10 19 -26 21 -92 5 -138 l-12 -33 -14 24 c-13 24 -13 24 -7 -6 9 -39 11
-40 29 -25 12 10 16 8 26 -16 6 -16 17 -60 24 -97 7 -38 16 -71 20 -75 9 -9
-3 93 -16 135 -6 18 -8 37 -4 43 3 5 -1 20 -10 34 -10 16 -15 38 -12 63 3 31
5 34 11 17 18 -51 65 -137 65 -119 0 11 -4 29 -8 40 -11 26 7 64 20 44 12 -19
11 -126 0 -134 -5 -3 -19 9 -31 25 -12 17 -25 29 -28 25 -3 -3 7 -18 21 -33
19 -19 27 -39 27 -63 0 -43 -18 -109 -30 -109 -12 0 -46 50 -70 102 -11 24
-20 35 -20 26 0 -23 -16 -23 -24 -2 -4 9 -9 14 -13 11 -3 -4 -1 -13 6 -20 8
-10 7 -27 -4 -65 -15 -51 -35 -78 -35 -48 0 9 5 16 11 16 7 0 10 23 7 64 -1
35 0 62 5 59 11 -7 9 5 -8 37 -12 23 -13 35 -3 57 11 28 11 28 24 -25 14 -61
29 -85 19 -32 -3 19 -7 56 -9 81 -1 28 -13 64 -30 93 -30 51 -48 57 -22 7 21
-39 20 -94 0 -137 -9 -19 -18 -33 -20 -32 -10 10 -29 138 -23 158 4 18 8 3 14
-48 5 -52 11 -70 18 -63 8 8 8 32 -1 82 -7 39 -10 75 -6 80 3 5 -4 21 -14 37
-11 15 -20 32 -20 37 1 14 -123 108 -131 100 -3 -4 3 -11 14 -17 64 -35 136
-161 108 -189 -7 -7 -12 0 -17 21 -7 39 -117 157 -135 146 -8 -5 9 -28 51 -68
35 -33 48 -49 28 -35 -19 14 -58 37 -87 52 -28 14 -58 36 -66 48 -16 26 -49
107 -43 107 3 0 16 -4 29 -9 40 -15 125 15 103 36 -3 3 -12 -2 -21 -11 -22
-22 -90 -22 -81 0 3 9 6 19 6 24 0 7 20 14 55 18 6 1 3 -3 -5 -8z m1226 -4 c1
-1 5 -11 8 -23 7 -21 4 -23 -26 -23 -49 0 -65 14 -38 33 16 11 18 16 8 21 -7
3 1 3 17 -1 17 -3 31 -6 31 -7z m-1286 -9 c0 -21 -12 -28 -27 -16 -19 16 -16
29 7 29 11 0 20 -6 20 -13z m1205 -7 c-17 -19 -17 -20 10 -30 34 -13 87 -16
103 -6 13 8 -11 -67 -33 -100 -7 -11 -51 -42 -97 -67 l-83 -47 58 54 c34 32
54 57 47 61 -16 10 -127 -107 -138 -146 l-10 -34 -1 37 c-1 20 3 47 8 60 10
27 54 76 90 101 14 9 22 19 19 22 -9 9 -133 -91 -181 -147 l-47 -53 0 35 c0
20 9 53 20 75 11 21 18 41 15 43 -2 2 -14 -17 -27 -43 -13 -26 -37 -63 -55
-83 -18 -19 -40 -57 -49 -83 -10 -27 -21 -49 -25 -49 -9 0 -19 39 -19 79 0 32
46 131 61 131 4 0 16 3 26 7 17 6 17 5 1 -13 -24 -27 -68 -119 -68 -140 0 -11
13 8 29 41 27 58 115 167 130 162 4 -1 22 15 40 36 41 46 31 48 -19 3 -55 -49
-119 -84 -170 -92 l-45 -7 79 73 78 74 67 1 c53 0 79 7 131 32 79 38 77 38 55
13z m135 11 c0 -13 -26 -32 -33 -24 -14 13 -6 33 13 33 11 0 20 -4 20 -9z
m-1449 -121 c8 0 24 -7 35 -15 16 -12 12 -12 -31 1 -59 17 -80 26 -45 19 14
-2 32 -5 41 -5z m1548 -4 c-11 -9 -63 -17 -54 -8 6 6 19 12 30 14 20 4 32 1
24 -6z m38 8 c-3 -3 -12 -4 -19 -1 -8 3 -5 6 6 6 11 1 17 -2 13 -5z m-1085
-105 c23 -32 51 -78 61 -101 18 -43 18 -43 12 -8 -3 19 -19 57 -35 83 -36 57
-35 57 -10 50 21 -6 57 -60 71 -107 9 -30 -5 -106 -19 -106 -4 0 -15 21 -24
48 -10 26 -33 65 -51 87 -19 22 -44 59 -56 82 -30 61 -3 46 51 -28z m638 -26
c-12 -15 -17 -29 -11 -31 7 -2 7 -12 0 -28 -5 -14 -8 -53 -8 -87 l1 -62 10 65
c5 36 14 70 20 75 7 7 8 -3 3 -35 -4 -25 -10 -67 -14 -95 l-7 -50 -23 35 c-18
28 -22 30 -18 11 4 -15 -4 -43 -19 -72 -26 -53 -43 -63 -45 -26 -1 20 -1 20
-9 -5 -10 -33 -63 -128 -71 -128 -18 0 -30 33 -32 87 -2 52 1 63 26 92 15 18
27 31 27 29 0 -2 -7 -38 -15 -81 -17 -88 -18 -103 -8 -93 4 4 15 45 24 93 20
99 38 129 40 68 2 -31 3 -33 6 -12 2 15 9 27 14 27 5 0 9 7 9 16 0 8 -4 13 -9
9 -12 -7 -31 58 -31 106 0 26 7 42 27 60 23 21 25 22 19 4 -13 -34 -19 -121
-10 -138 6 -11 9 -1 10 31 1 42 6 53 54 105 56 60 76 75 40 30z m-148 -135 c1
-29 -6 -47 -41 -93 -32 -43 -46 -54 -52 -44 -13 20 -11 97 2 122 l12 21 8 -22
c5 -12 4 -35 -3 -52 -21 -60 -1 -39 32 35 18 41 35 73 36 72 2 -2 4 -19 6 -39z
m1248 -42 c0 -2 -7 -7 -16 -10 -8 -3 -12 -2 -9 4 6 10 25 14 25 6z m-1557 -84
c29 -53 50 -132 36 -132 -5 0 -9 4 -9 9 0 5 -16 30 -35 55 -25 32 -35 57 -35
81 0 19 4 35 8 35 5 0 21 -22 35 -48z m197 9 c0 -23 -6 -44 -16 -52 -8 -7 -24
-30 -35 -51 -13 -25 -26 -38 -39 -38 -17 0 -20 7 -20 54 0 46 3 56 25 70 27
18 30 15 15 -13 -14 -27 -29 -101 -20 -101 4 0 10 15 14 33 8 41 55 137 67
137 5 0 9 -17 9 -39z m1100 -5 c0 -2 -8 -10 -17 -17 -16 -13 -17 -12 -4 4 13
16 21 21 21 13z m-1561 -75 c-1 -21 -3 -27 -6 -16 -2 11 -8 36 -13 55 -8 32
-8 33 5 16 8 -11 14 -36 14 -55z m670 15 c-6 -31 -5 -62 1 -85 13 -47 4 -53
-15 -8 -19 46 -19 80 1 118 21 41 24 34 13 -25z m26 -11 c-9 -42 -14 -51 -14
-29 -1 28 18 99 24 92 1 -2 -3 -30 -10 -63z m753 -16 c-29 -23 -66 -54 -83
-68 -28 -24 -28 -24 -10 -2 24 29 126 111 138 111 5 0 -15 -19 -45 -41z
m-1168 -51 c0 -5 -6 -8 -13 -8 -12 0 -38 61 -37 86 1 11 50 -67 50 -78z m162
37 c-8 -25 -21 -45 -28 -45 -8 0 -14 3 -14 8 0 8 49 82 54 82 2 0 -3 -20 -12
-45z m-212 -36 c0 -9 -9 -19 -21 -22 -18 -5 -20 -2 -15 16 3 12 6 36 7 52 l1
30 13 -30 c8 -16 14 -37 15 -46z m259 4 c1 -17 -5 -23 -19 -23 -24 0 -24 1 -8
53 11 38 13 39 19 16 4 -13 7 -34 8 -46z m-409 -8 c-12 -43 -96 -162 -106
-152 -7 7 15 59 41 97 13 19 26 51 30 70 8 38 24 55 39 40 5 -5 4 -28 -4 -55z
m554 21 c4 -18 19 -53 35 -77 16 -24 32 -57 36 -74 l6 -30 -36 40 c-55 61 -91
138 -79 170 9 23 32 6 38 -29z m-505 -45 c8 -15 4 -21 -23 -34 l-34 -16 15 39
c16 40 26 43 42 11z m481 -44 c0 -4 -13 -1 -30 8 -34 18 -34 18 -19 47 11 21
12 20 30 -13 10 -19 18 -37 19 -42z m-190 53 c126 -20 272 -112 331 -206 14
-24 28 -34 45 -34 22 0 24 -4 24 -53 0 -52 1 -54 66 -117 107 -105 176 -219
215 -355 l18 -60 -4 45 c-1 26 -18 76 -39 118 -20 40 -36 76 -36 81 0 5 -13
24 -30 42 -25 29 -27 35 -12 38 11 2 28 -11 47 -35 16 -22 59 -69 95 -105 53
-53 80 -71 145 -97 136 -56 174 -74 197 -99 29 -31 17 -39 -69 -49 -109 -11
-167 8 -245 84 -84 82 -51 35 42 -59 109 -111 174 -229 125 -229 -55 0 -191
102 -198 148 -4 25 -4 24 -6 -5 0 -18 3 -33 8 -33 15 0 51 -111 51 -161 0 -27
-3 -49 -7 -49 -3 0 -21 11 -38 25 -26 19 -32 30 -29 52 5 33 1 26 -21 -47 -38
-124 -124 -253 -224 -338 -47 -40 -51 -46 -51 -88 0 -40 -2 -44 -24 -44 -16 0
-35 -13 -54 -36 -26 -32 -29 -40 -20 -65 11 -33 4 -64 -13 -53 -6 3 -9 22 -7
40 2 19 3 34 1 34 -2 0 -24 -16 -49 -35 -91 -70 -188 -100 -319 -99 -158 1
-270 48 -377 156 -33 34 -65 58 -77 58 -18 0 -21 6 -21 48 0 43 -3 49 -36 71
-70 48 -182 179 -224 263 -22 44 -40 87 -40 96 0 10 -7 6 -21 -12 -24 -30 -46
-34 -52 -8 -4 14 -5 13 -6 -4 -1 -20 -52 -77 -89 -98 -11 -6 -42 -27 -68 -46
-57 -40 -58 -43 70 115 57 71 81 93 87 83 6 -9 9 -5 9 13 0 15 6 42 14 60 11
27 15 30 19 13 2 -10 5 28 6 86 0 76 -2 100 -10 87 -5 -9 -8 -21 -5 -25 2 -4
0 -14 -6 -22 -8 -12 -9 -11 -4 5 4 12 -4 6 -21 -15 -15 -19 -46 -55 -68 -79
l-40 -45 33 20 c19 10 49 36 68 57 19 20 36 37 39 37 3 0 5 -13 5 -28 0 -44
-80 -109 -167 -136 -19 -6 -23 -4 -23 16 1 45 39 107 116 188 64 67 79 78 84
64 5 -13 9 -6 13 22 19 116 96 246 218 366 l99 98 0 50 c0 46 2 50 24 50 17 0
34 13 58 48 66 90 178 160 301 187 78 17 97 17 177 5z m1870 -34 c0 -2 -8 -10
-17 -17 -16 -13 -17 -12 -4 4 13 16 21 21 21 13z m-40 -30 c0 -6 -115 -78
-204 -126 -71 -39 -144 -60 -130 -38 3 5 13 6 23 3 16 -5 185 83 268 140 39
26 43 28 43 21z m-2293 -60 c-9 -13 -41 -51 -72 -84 -51 -55 -69 -82 -45 -67
6 3 10 -3 10 -14 0 -21 -13 -26 -53 -23 -10 1 -15 -3 -12 -8 7 -11 -23 -59
-69 -107 -16 -18 -25 -33 -20 -33 12 0 59 50 99 103 27 37 55 49 55 23 0 -7
-15 -25 -32 -39 -18 -14 -54 -46 -80 -71 -51 -50 -99 -65 -77 -23 7 12 23 35
36 51 14 16 44 69 69 118 45 89 65 118 38 53 -7 -19 -14 -40 -14 -47 1 -7 9 8
19 33 10 26 25 56 33 68 16 22 120 100 127 95 2 -2 -3 -14 -12 -28z m-37 -86
c-6 -11 -16 -20 -22 -20 -6 0 -3 9 7 20 10 11 20 20 22 20 2 0 -1 -9 -7 -20z
m855 0 c10 -11 14 -20 9 -20 -5 0 -15 9 -22 20 -7 11 -11 20 -9 20 2 0 12 -9
22 -20z m645 -64 c0 -2 -8 -10 -17 -17 -16 -13 -17 -12 -4 4 13 16 21 21 21
13z m-61 -49 c-2 -1 -15 -11 -29 -22 l-25 -20 19 23 c11 12 24 22 29 22 6 0 8
-1 6 -3z m240 -1 c-10 -9 -89 -46 -89 -41 0 6 72 44 84 45 5 0 7 -2 5 -4z
m561 -1 c0 -2 -10 -9 -22 -15 -22 -11 -22 -10 -4 4 21 17 26 19 26 11z m-3514
-73 c-5 -4 -86 36 -86 43 0 3 20 -5 45 -17 24 -12 43 -23 41 -26z m3359 -7
c-49 -24 -101 -45 -115 -49 -14 -3 -7 2 15 12 22 9 69 31 105 49 36 17 70 31
75 31 6 0 -30 -19 -80 -43z m-525 20 c0 -2 -13 -11 -30 -20 -38 -19 -40 -11
-2 9 31 17 32 18 32 11z m-2693 -64 c62 -25 111 -46 109 -49 -5 -4 -206 74
-226 89 -19 13 -18 13 117 -40z m849 -118 c-24 -38 -50 -84 -59 -104 -8 -20
-20 -40 -26 -43 -6 -4 -9 -11 -6 -16 3 -5 0 -12 -6 -16 -8 -4 -9 -3 -5 4 11
18 3 15 -57 -21 -30 -19 -91 -44 -136 -58 -44 -13 -81 -27 -81 -31 0 -4 6 -6
13 -4 6 3 45 12 85 21 39 10 72 21 72 27 0 5 5 6 12 2 7 -5 8 -3 3 6 -6 10 -4
12 8 7 10 -4 32 3 52 14 47 28 46 7 -2 -39 -56 -52 -106 -72 -189 -72 -83 0
-134 8 -134 22 0 24 67 69 146 97 46 17 99 38 116 47 43 22 121 97 175 167 60
78 72 72 19 -10z m1484 44 c0 -7 12 -30 27 -52 16 -24 20 -34 9 -26 -23 19
-60 91 -46 91 5 0 10 -6 10 -13z m-2397 -42 c37 -15 66 -29 63 -32 -4 -5 -147
54 -156 64 -6 7 2 4 93 -32z m3267 10 c-14 -8 -29 -14 -35 -14 -5 0 1 6 15 14
14 8 30 14 35 14 6 0 -1 -6 -15 -14z m-2465 -43 l-28 -27 24 31 c13 17 26 30
28 27 3 -2 -8 -16 -24 -31z m2405 19 c-8 -5 -26 -11 -40 -15 -21 -5 -20 -3 5
9 32 15 60 20 35 6z m-3030 -51 c8 -5 11 -10 5 -10 -5 0 -17 5 -25 10 -8 5
-10 10 -5 10 6 0 17 -5 25 -10z m2897 4 c-3 -3 -12 -4 -19 -1 -8 3 -5 6 6 6
11 1 17 -2 13 -5z m-40 -10 c-3 -3 -12 -4 -19 -1 -8 3 -5 6 6 6 11 1 17 -2 13
-5z m-2790 -10 c-3 -3 -12 -4 -19 -1 -8 3 -5 6 6 6 11 1 17 -2 13 -5z m50 -10
c-3 -3 -12 -4 -19 -1 -8 3 -5 6 6 6 11 1 17 -2 13 -5z m483 -114 c-14 -11 -29
-20 -35 -20 -5 0 4 9 20 20 38 25 48 25 15 0z m2167 -36 c-3 -3 -12 -4 -19 -1
-8 3 -5 6 6 6 11 1 17 -2 13 -5z m-285 -96 c37 -2 64 -5 62 -8 -8 -7 185 -48
286 -61 97 -11 127 -19 74 -19 -16 0 -47 -10 -69 -21 -34 -19 -49 -20 -120
-14 -85 7 -180 26 -257 51 -32 10 -57 28 -82 58 l-35 43 38 -13 c21 -7 67 -14
103 -16z m-1970 -5 c-31 -43 -53 -59 -107 -77 -136 -44 -331 -60 -369 -31 -11
8 -30 15 -43 15 -13 0 -23 4 -23 9 0 4 33 11 73 15 39 3 122 18 182 31 61 14
150 32 199 40 49 8 91 17 94 20 15 14 11 2 -6 -22z m79 -31 c-5 -9 -19 -26
-32 -37 -19 -16 -18 -13 5 18 30 39 43 49 27 19z m1771 -155 c17 -17 33 -25
40 -21 7 4 10 4 6 -1 -9 -9 9 -35 24 -35 5 0 6 6 2 13 -5 8 -3 8 9 -2 9 -7 14
-17 12 -22 -3 -4 44 -36 105 -70 112 -62 136 -85 58 -56 -24 9 -58 19 -77 22
-19 3 -65 26 -103 51 -62 42 -79 58 -116 110 -12 18 -13 18 -8 1 3 -10 2 -16
-3 -13 -5 3 -11 18 -14 33 -3 16 -9 37 -13 48 -6 18 -4 17 22 -5 16 -14 41
-38 56 -53z m-22 -72 c4 0 12 -4 17 -9 5 -5 3 -6 -4 -2 -26 14 -12 -8 54 -87
l67 -80 -49 27 c-28 15 -68 47 -90 71 -36 39 -40 50 -37 82 4 34 6 35 19 17 8
-10 18 -19 23 -19z m-25 -75 c27 -40 42 -90 27 -90 -12 0 -80 80 -112 134
l-23 38 42 -23 c23 -13 52 -40 66 -59z m-1688 8 c-48 -69 -83 -108 -97 -108
-14 0 -12 8 18 69 20 39 38 61 67 77 22 12 42 20 44 18 2 -2 -12 -28 -32 -56z
m1625 -29 l45 -55 -43 14 c-51 17 -77 51 -68 88 4 14 10 22 14 17 4 -4 28 -33
52 -64z m258 -33 c5 -16 10 -37 10 -47 0 -39 -10 -28 -134 139 -5 7 18 -4 52
-25 41 -25 65 -48 72 -67z m-1821 42 c6 -17 8 -28 4 -25 -3 4 -13 1 -22 -7 -9
-8 -35 -21 -58 -29 l-42 -14 44 51 c25 28 45 54 45 59 0 18 19 -5 29 -35z
m1479 -44 c-12 -45 -4 -56 11 -14 6 17 15 29 21 25 17 -11 11 -30 -19 -59 -24
-23 -29 -25 -35 -11 -10 27 -7 49 10 73 21 31 24 28 12 -14z m-1478 -2 c0 -5
7 -17 15 -28 13 -18 14 -18 9 6 -5 24 -5 24 10 6 18 -23 19 -26 6 -46 -7 -12
-13 -11 -34 10 -26 23 -35 60 -16 60 6 0 10 -4 10 -8z m1452 -77 c3 -13 2 -22
-3 -20 -4 3 -10 1 -14 -5 -6 -10 -45 -14 -45 -5 0 12 44 64 50 60 4 -3 10 -16
12 -30z m-1377 5 c18 -19 17 -20 -3 -20 -15 0 -22 6 -22 20 0 11 2 20 3 20 2
0 12 -9 22 -20z m1428 -8 c-3 -12 -12 -22 -20 -22 -14 0 -11 10 10 38 13 17
17 11 10 -16z m-2590 -29 c-6 -17 -5 -16 15 0 14 13 29 17 49 13 24 -6 28 -12
29 -41 1 -40 -22 -51 -65 -29 -27 14 -46 48 -35 66 9 14 14 9 7 -9z m178 -16
c22 -10 25 -16 18 -34 -10 -27 -29 -29 -69 -8 -66 34 -18 74 51 42z m847 -25
c-19 -21 -45 -64 -58 -95 -23 -55 -40 -73 -40 -43 0 8 -3 23 -6 33 -5 15 -4
16 6 3 10 -13 11 -11 7 8 -3 14 -1 20 6 15 7 -4 8 0 4 11 -4 10 -3 15 3 11 5
-3 16 8 25 25 21 41 51 70 71 70 12 0 7 -11 -18 -38z m1540 -18 c38 -42 72
-116 72 -155 0 -16 -33 -32 -44 -21 -3 3 -6 15 -5 26 0 21 1 21 10 1 7 -16 8
-14 3 9 -9 48 -33 98 -43 92 -5 -4 -13 -1 -17 5 -4 8 -3 9 4 5 17 -10 15 6 -4
33 -11 15 -20 19 -26 13 -13 -13 0 -35 14 -26 6 4 8 2 5 -3 -4 -6 4 -35 17
-64 32 -71 36 -102 14 -107 -13 -3 -18 3 -18 21 0 45 -33 127 -67 167 -23 26
-29 40 -20 40 8 0 20 -7 27 -15 14 -17 34 -9 26 11 -11 27 13 13 52 -32z m14
34 c2 -6 12 -12 22 -14 13 -2 16 2 11 14 -12 32 57 -43 86 -93 34 -59 36 -81
10 -88 -16 -4 -21 2 -27 27 -12 58 -51 133 -68 133 -9 0 -15 -5 -13 -11 2 -6
10 -11 17 -11 7 0 15 -7 17 -15 4 -13 3 -13 -6 0 -16 23 -13 10 14 -55 26 -62
30 -85 18 -85 -5 0 -16 26 -25 58 -9 32 -33 79 -53 105 -24 32 -31 47 -21 47
8 0 16 -5 18 -12z m132 -50 c18 -29 37 -64 41 -77 5 -18 9 -21 16 -10 5 8 9 9
9 3 0 -12 -28 -40 -33 -33 -2 2 -14 28 -27 57 -13 29 -30 58 -37 64 -8 6 -19
20 -24 30 -7 14 -6 18 6 18 8 0 30 -24 49 -52z m-1499 -34 c-20 -47 -24 -71
-20 -119 3 -46 2 -52 -4 -25 l-8 35 -2 -33 c-1 -22 -5 -32 -13 -29 -34 11 2
164 50 220 24 27 23 16 -3 -49z m1309 -55 c21 -69 20 -98 -1 -105 -10 -4 -32
-12 -50 -20 -17 -8 -33 -14 -36 -14 -3 0 -7 46 -9 103 -3 56 -8 110 -12 119
-6 14 -4 16 14 13 17 -3 21 -1 16 13 -3 9 9 1 28 -20 20 -21 41 -58 50 -89z
m-1935 5 c8 -6 -10 -54 -21 -54 -15 0 -241 81 -251 90 -4 4 -3 18 3 32 l12 25
126 -45 c70 -25 129 -47 131 -48z m2201 44 c27 -37 31 -58 11 -58 -5 0 -14 13
-21 30 -7 16 -16 27 -21 24 -5 -3 -6 3 -2 12 4 11 3 15 -5 10 -6 -3 -14 -1
-18 5 -5 8 -3 9 6 4 10 -6 12 -4 7 9 -10 27 11 9 43 -36z m-2619 25 c14 -14
-29 -107 -44 -95 -7 5 -27 13 -45 17 -19 4 -31 12 -29 18 4 12 34 13 77 3 20
-5 19 -3 -6 8 -68 32 -69 72 -1 63 21 -3 43 -9 48 -14z m1104 -26 c-3 -23 -8
-55 -10 -72 -4 -22 -2 -26 5 -15 5 8 10 34 10 57 0 23 4 44 8 47 13 8 49 -27
57 -54 4 -17 3 -21 -3 -12 -11 16 -22 -38 -22 -109 0 -50 -5 -60 -26 -52 -9 3
-15 23 -16 57 l-2 51 -3 -48 c-4 -44 -6 -47 -26 -41 -32 9 -34 13 -40 84 -3
36 -2 54 2 40 7 -24 8 -24 15 10 4 19 8 45 9 57 1 11 6 19 11 15 5 -3 7 1 4 9
-4 10 1 15 13 16 17 2 18 -3 14 -40z m1143 -91 c4 -96 3 -103 -16 -108 -17 -5
-20 1 -26 61 -3 36 -10 80 -16 96 -9 28 -10 27 -5 -10 3 -29 2 -35 -5 -20 -11
26 -12 9 -1 -35 21 -82 21 -99 1 -110 -23 -12 -33 3 -44 63 -5 28 -4 37 7 37
10 0 17 17 21 50 7 54 51 109 70 90 6 -6 12 -57 14 -114z m-1689 78 c2 -2 -15
-56 -39 -119 l-42 -115 -37 7 c-20 3 -44 6 -53 5 -10 0 -18 1 -18 4 0 2 21 60
46 128 l45 124 47 -15 c26 -9 49 -17 51 -19z m492 -11 c-12 -20 -14 -14 -5 12
4 9 9 14 11 11 3 -2 0 -13 -6 -23z m-97 -5 c-4 -13 -14 -43 -21 -68 l-13 -45
5 42 c5 40 23 93 32 93 3 0 1 -10 -3 -22z m-677 -40 c110 -38 122 -45 117 -63
-13 -43 -18 -42 -261 46 -20 8 -22 11 -11 34 6 14 16 25 22 25 6 0 66 -19 133
-42z m2142 2 c0 -10 -3 -8 -9 5 -12 27 -12 43 0 25 5 -8 9 -22 9 -30z m-1607
-47 c35 -36 308 -368 308 -376 0 -4 -9 -3 -19 3 -11 5 -35 10 -53 10 -27 0
-40 9 -74 48 -47 55 -283 339 -303 364 -11 15 -3 14 55 -7 37 -14 76 -33 86
-42z m-444 -68 c8 -8 -10 -45 -22 -45 -17 0 -239 79 -247 88 -4 4 -3 17 2 29
8 22 8 22 136 -23 70 -25 129 -47 131 -49z m330 50 c7 2 10 0 7 -5 -3 -6 0
-10 7 -10 12 0 88 -81 88 -93 0 -9 -264 91 -268 101 -2 6 2 20 8 31 10 21 11
21 77 -4 37 -14 73 -23 81 -20z m513 14 c14 -4 14 -9 1 -56 -11 -40 -19 -53
-33 -53 -21 0 -23 11 -13 84 5 32 10 43 18 37 6 -5 18 -10 27 -12z m-524 -97
c123 -43 138 -51 170 -90 19 -24 34 -44 32 -46 -4 -3 -379 130 -386 137 -2 3
2 16 8 31 8 17 18 25 27 21 8 -3 75 -27 149 -53z m685 -35 c9 -3 7 -9 -7 -21
-28 -22 -38 -20 -31 8 8 34 -6 41 -20 9 -12 -28 -12 -27 -13 15 l-1 44 30 -25
c16 -14 35 -27 42 -30z m645 3 c0 -33 -17 -39 -38 -14 -10 13 -10 17 1 24 8 5
18 6 22 4 4 -3 8 0 8 5 0 6 2 11 3 11 2 0 4 -13 4 -30z m-1308 -53 c193 -69
207 -76 239 -116 l35 -42 -94 35 c-126 46 -129 47 -129 55 0 11 -82 47 -180
80 -56 18 -86 33 -88 44 -2 10 0 17 5 17 4 0 100 -33 212 -73z m1237 1 c-12
-7 -33 -6 -66 2 -3 0 9 7 25 14 21 9 34 10 43 3 11 -9 11 -12 -2 -19z m-441
-18 c-3 -5 -15 -10 -26 -10 -11 0 -17 5 -14 10 3 6 15 10 26 10 11 0 17 -4 14
-10z m50 -10 c18 -7 19 -8 3 -15 -22 -9 -51 1 -43 15 7 12 13 12 40 0z m276
-5 c0 -5 -9 -11 -21 -13 -20 -3 -27 8 -13 22 10 9 34 3 34 -9z m-211 -12 c-1
-18 -19 -35 -29 -28 -9 5 -9 10 0 21 12 15 29 19 29 7z m30 -7 c0 -8 3 -21 6
-30 7 -17 -3 -21 -23 -8 -7 4 -10 17 -6 30 6 24 23 30 23 8z m73 -5 c6 -23 0
-31 -23 -31 -13 0 -16 6 -12 25 5 30 28 33 35 6z m-729 -117 c16 -6 23 -34 8
-34 -10 0 -32 22 -32 32 0 10 3 10 24 2z m-6 -59 c-3 -3 -9 2 -12 12 -6 14 -5
15 5 6 7 -7 10 -15 7 -18z m-513 -95 c0 -8 -8 -16 -17 -18 -13 -2 -18 3 -18
18 0 15 5 20 18 18 9 -2 17 -10 17 -18z m1478 -36 c409 -143 430 -152 470
-195 20 -23 36 -44 33 -46 -2 -2 -113 35 -246 82 -134 47 -245 84 -247 82 -2
-2 115 -46 260 -97 193 -68 267 -99 280 -116 16 -21 5 -19 -124 27 -77 27
-157 49 -177 49 -43 0 -229 64 -256 88 -10 9 -27 29 -38 45 l-19 27 27 -10
c15 -6 29 -9 31 -6 2 2 -13 9 -34 16 -21 7 -54 29 -73 49 -46 49 -27 22 39
-57 30 -34 51 -65 49 -67 -3 -3 -24 2 -48 10 -28 10 -61 35 -96 73 -29 31 -53
60 -54 64 0 5 56 24 83 27 5 1 68 -20 140 -45z m-189 -36 c19 -24 34 -44 32
-45 -1 -2 -107 34 -156 54 -11 4 -7 9 15 19 51 22 71 17 109 -28z m-1227 -58
c0 -22 -6 -30 -25 -35 -30 -7 -28 -9 -36 43 -7 49 10 58 38 20 15 -21 15 -20
0 9 -11 20 -23 29 -33 26 -14 -4 -14 -3 -1 6 20 15 57 -29 57 -69z m1098 58
c21 -9 25 -18 25 -51 0 -44 7 -47 12 -5 5 36 11 40 41 29 24 -9 25 -12 15 -48
-13 -49 -47 -105 -61 -100 -23 7 -51 59 -62 114 -16 76 -13 81 30 61z m-101
-190 c-30 -83 -53 -152 -51 -155 2 -2 24 42 48 97 l44 102 3 -73 c4 -90 -7
-116 -70 -175 -59 -55 -70 -50 -76 34 -7 101 60 299 117 343 l25 20 8 -21 c5
-14 -9 -66 -48 -172z m-44 106 c-40 -76 -43 -78 -95 -103 -59 -28 -65 -27 -65
13 0 61 18 93 62 111 22 9 42 14 44 12 2 -2 -8 -20 -22 -41 -39 -56 -23 -53
20 5 31 42 73 74 84 64 1 -1 -11 -29 -28 -61z m338 11 c47 -24 87 -141 87
-257 0 -48 -5 -92 -10 -97 -23 -23 -156 124 -138 152 3 6 2 7 -4 4 -6 -4 -13
-35 -16 -70 -7 -71 -39 -168 -64 -188 -13 -11 -19 -9 -39 14 -13 15 -28 44
-35 65 -13 44 -24 279 -15 318 l7 28 25 -43 c15 -26 25 -61 26 -90 l1 -46 7
50 c4 28 8 46 8 41 3 -14 41 39 61 86 l18 43 11 -95 c7 -62 10 -75 9 -37 -1
31 0 57 3 57 3 0 25 -48 50 -107 82 -197 50 -78 -45 170 -9 22 11 22 53 2z
m861 -75 c178 -63 182 -65 176 -90 -4 -14 -8 -27 -11 -29 -5 -5 -275 89 -292
102 -20 16 -77 90 -66 86 6 -2 93 -33 193 -69z m-743 29 c6 -5 13 -6 16 -4 3
3 17 1 32 -4 21 -9 26 -17 26 -46 0 -19 -5 -35 -11 -35 -26 0 -112 56 -125 82
-8 15 -14 29 -14 32 0 6 61 -14 76 -25z m-624 -70 c3 -35 0 -42 -22 -53 -14
-7 -43 -16 -64 -19 l-40 -6 59 59 c33 33 60 60 61 60 1 0 4 -18 6 -41z m772
-18 l57 -58 -43 7 c-72 12 -78 17 -78 66 0 24 1 44 3 44 1 0 29 -26 61 -59z
m1041 49 c4 -6 -6 -35 -20 -65 l-27 -54 -29 15 c-16 8 -29 19 -29 25 0 6 14
28 32 50 30 38 60 50 73 29z m-972 -44 c8 -12 19 -35 24 -52 10 -29 9 -31 -8
-27 -10 3 -19 11 -19 17 0 7 -18 30 -40 51 -22 21 -40 42 -40 46 0 15 70 -15
83 -35z m-1713 9 c0 -9 -6 -12 -15 -9 -8 4 -15 10 -15 15 0 5 7 9 15 9 8 0 15
-7 15 -15z m955 -59 c-45 -55 -58 -61 -20 -8 46 61 48 63 53 58 2 -3 -13 -25
-33 -50z m564 -13 l33 -48 -36 40 c-20 22 -41 49 -48 60 -21 37 15 0 51 -52z
m1058 42 c-7 -14 -15 -25 -19 -25 -11 0 -10 8 2 31 16 28 30 23 17 -6z m161
-30 c1 -1 -2 -14 -9 -28 -10 -23 -14 -24 -43 -15 -40 14 -38 11 -27 41 10 25
12 26 43 15 18 -6 34 -12 36 -13z m-2878 5 c0 -5 -4 -10 -9 -10 -6 0 -13 5
-16 10 -3 6 1 10 9 10 9 0 16 -4 16 -10z m94 -73 l-6 -28 -24 32 c-30 41 -30
47 -1 58 17 7 24 4 30 -12 4 -12 5 -34 1 -50z m-59 23 l30 -31 -64 23 c-75 27
-97 55 -35 45 23 -4 50 -18 69 -37z m132 18 c19 -15 16 -41 -3 -34 -9 3 -19 6
-24 6 -12 0 -40 29 -40 42 0 12 48 2 67 -14z m2529 6 c-3 -9 -6 -25 -6 -37 0
-15 -3 -18 -11 -10 -12 12 -2 63 13 63 6 0 7 -7 4 -16z m49 2 c18 -13 18 -14
-5 -46 -20 -28 -24 -30 -32 -16 -10 18 -1 76 11 76 4 0 16 -6 26 -14z m218
-36 c-3 -11 -10 -23 -16 -27 -7 -4 -8 0 -4 11 4 10 7 24 7 32 0 9 4 13 9 10 5
-3 7 -15 4 -26z m-103 -22 c0 -5 -5 -18 -10 -28 -10 -18 -12 -18 -58 -3 -26 9
-49 18 -51 19 -3 2 6 15 18 28 22 23 24 23 62 8 21 -8 39 -19 39 -24z m144 -6
c-5 -37 -2 -51 10 -61 21 -18 20 -66 -3 -117 l-19 -42 -46 15 c-26 9 -46 22
-46 30 0 7 13 48 30 91 16 42 34 89 39 105 6 15 18 27 26 27 13 0 15 -8 9 -48z
m-2997 17 c32 -12 61 -28 65 -35 5 -6 17 -10 28 -7 11 3 20 0 20 -6 0 -15 -46
-14 -73 1 -12 7 -40 14 -62 17 -32 5 -41 11 -43 29 -4 27 -6 27 65 1z m2502
-35 c3 -2 0 -9 -5 -14 -19 -19 -134 32 -134 61 0 6 129 -37 139 -47z m-2639
18 c9 -10 28 -16 48 -15 24 1 39 -6 57 -25 13 -14 23 -28 21 -30 -6 -5 -50 19
-58 32 -5 7 -8 4 -8 -8 0 -16 -2 -17 -16 -5 -9 7 -37 20 -62 29 -31 10 -48 22
-50 34 -3 16 0 18 25 12 15 -4 35 -15 43 -24z m299 8 c10 -5 5 -10 -18 -15
-35 -7 -58 5 -46 25 6 10 34 6 64 -10z m2528 -20 c11 -12 25 -17 38 -14 24 6
95 -21 95 -37 0 -6 8 -8 19 -4 10 3 30 1 44 -4 24 -9 25 -13 16 -40 l-11 -30
-61 22 c-38 14 -62 28 -62 37 0 11 -12 15 -40 16 -87 2 -100 9 -86 47 12 32
25 34 48 7z m442 -14 c10 -12 9 -17 -8 -25 -28 -15 -34 -14 -28 8 2 10 0 26
-5 35 -9 15 -7 16 9 7 11 -5 25 -17 32 -25z m-239 4 c9 -5 19 -5 27 2 9 7 13
7 13 -1 0 -25 -20 -50 -35 -44 -12 4 -13 9 -4 19 8 9 8 14 1 14 -6 0 -14 -4
-17 -10 -12 -19 -33 -11 -28 10 6 22 20 25 43 10z m-3191 -42 c3 6 7 -8 7 -31
l1 -42 -13 31 c-7 17 -15 44 -19 60 l-5 29 11 -29 c6 -15 14 -24 18 -18z m154
26 c25 -8 52 -23 59 -31 12 -15 8 -16 -33 -10 -61 8 -99 26 -92 43 6 18 9 17
66 -2z m175 3 c22 -13 23 -13 4 -31 -19 -16 -21 -16 -42 13 -20 29 -20 31 -3
31 10 -1 28 -6 41 -13z m302 -32 c0 -53 -8 -56 -38 -15 -27 35 -28 47 -4 53
39 10 42 7 42 -38z m-235 1 c39 -28 -19 -71 -68 -49 -21 10 -21 10 5 36 31 31
37 32 63 13z m-345 -12 c0 -14 -3 -14 -15 -4 -8 7 -15 14 -15 16 0 2 7 4 15 4
8 0 15 -7 15 -16z m70 1 l25 -13 -27 -7 c-34 -9 -58 -1 -58 20 0 19 27 19 60
0z m2845 6 c19 -8 19 -8 -2 -19 -21 -12 -53 -16 -53 -8 0 2 3 11 6 20 7 17 18
19 49 7z m65 -31 c-18 -25 -24 -28 -40 -18 -21 14 -17 26 14 38 41 17 48 11
26 -20z m320 15 c-7 -8 -9 -15 -5 -15 4 0 14 8 21 18 12 16 14 16 30 0 9 -9
13 -21 10 -27 -9 -15 -49 -14 -64 1 -17 17 -15 38 4 38 14 0 14 -3 4 -15z
m-3050 -5 c0 -5 -5 -10 -11 -10 -5 0 -7 5 -4 10 3 6 8 10 11 10 2 0 4 -4 4
-10z m-266 -6 c20 -8 21 -24 2 -24 -8 0 -16 7 -20 15 -6 17 -4 18 18 9z m1412
-41 c-8 -15 -15 -25 -16 -21 0 12 23 58 27 54 3 -2 -2 -17 -11 -33z m1661 16
c66 -24 78 -33 69 -48 -5 -8 -13 -8 -27 -1 -10 6 -39 11 -63 12 -58 1 -71 9
-57 37 14 26 8 26 78 0z m-122 -9 c25 -28 13 -54 -23 -45 -35 8 -56 29 -49 49
9 22 50 20 72 -4z m492 7 c2 -3 5 -32 4 -44 -1 -8 -16 -13 -39 -13 -27 0 -41
6 -50 21 -7 12 -12 22 -10 22 2 1 12 7 23 14 16 10 63 9 72 0z m-107 -22 c17
-21 5 -45 -23 -45 -32 0 -38 8 -25 36 13 27 30 31 48 9z m-25 -65 c4 -6 -5
-10 -19 -10 -14 0 -26 5 -26 10 0 6 9 10 19 10 11 0 23 -4 26 -10z"/>
<path d="M2052 4634 c4 -21 22 -23 26 -1 2 10 -3 17 -13 17 -10 0 -15 -6 -13
-16z"/>
<path d="M2122 4596 c1 -10 8 -17 13 -17 15 1 12 24 -3 29 -9 3 -13 -2 -10
-12z"/>
<path d="M2717 4683 c-13 -12 -7 -33 8 -33 8 0 15 9 15 20 0 20 -11 26 -23 13z"/>
<path d="M2652 4648 c-16 -16 -15 -28 3 -28 8 0 15 9 15 20 0 23 -2 24 -18 8z"/>
<path d="M2575 4601 c-7 -12 12 -24 25 -16 11 7 4 25 -10 25 -5 0 -11 -4 -15
-9z"/>
<path d="M1944 4599 c-10 -17 13 -36 27 -22 12 12 4 33 -11 33 -5 0 -12 -5
-16 -11z"/>
<path d="M2752 4594 c4 -21 22 -23 26 -1 2 10 -3 17 -13 17 -10 0 -15 -6 -13
-16z"/>
<path d="M2685 4570 c-7 -12 2 -30 16 -30 5 0 9 9 9 20 0 21 -15 27 -25 10z"/>
<path d="M2620 4519 c0 -24 23 -21 28 4 2 10 -3 17 -12 17 -10 0 -16 -9 -16
-21z"/>
<path d="M2015 4570 c-7 -12 2 -30 16 -30 12 0 12 27 0 35 -5 3 -12 1 -16 -5z"/>
<path d="M2180 4546 c0 -9 7 -16 16 -16 9 0 14 5 12 12 -6 18 -28 21 -28 4z"/>
<path d="M2521 4556 c-9 -10 -9 -16 -1 -21 17 -10 37 12 24 25 -8 8 -15 6 -23
-4z"/>
<path d="M2074 4529 c-8 -14 11 -33 25 -25 11 7 4 36 -9 36 -5 0 -12 -5 -16
-11z"/>
<path d="M2422 3535 c-17 -37 -14 -45 4 -12 9 16 14 31 11 33 -2 2 -9 -7 -15
-21z"/>
<path d="M2400 3471 c0 -25 6 -27 13 -6 4 8 2 17 -3 20 -6 4 -10 -3 -10 -14z"/>
<path d="M2321 3434 c0 -11 3 -14 6 -6 3 7 2 16 -1 19 -3 4 -6 -2 -5 -13z"/>
<path d="M2330 3405 c0 -5 5 -17 10 -25 5 -8 10 -10 10 -5 0 6 -5 17 -10 25
-5 8 -10 11 -10 5z"/>
<path d="M2022 3801 c-10 -6 -3 -17 30 -43 48 -39 87 -62 94 -55 3 3 -11 15
-30 27 -20 12 -46 34 -58 50 -16 20 -27 27 -36 21z"/>
<path d="M1952 3718 c29 -29 63 -66 76 -83 l22 -30 -19 40 c-27 57 -89 125
-113 125 -16 0 -9 -11 34 -52z"/>
<path d="M2102 3365 c0 -16 2 -22 5 -12 2 9 2 23 0 30 -3 6 -5 -1 -5 -18z"/>
<path d="M2654 3769 c-16 -17 -41 -38 -56 -47 -16 -9 -28 -20 -28 -25 0 -12
57 23 104 65 26 23 35 37 25 38 -8 0 -28 -14 -45 -31z"/>
<path d="M2751 3728 c-42 -42 -89 -118 -73 -118 4 0 16 15 26 33 11 17 42 53
70 79 31 29 45 48 35 48 -9 0 -35 -19 -58 -42z"/>
<path d="M2685 3543 c-19 -35 -28 -67 -31 -117 -2 -38 -7 -73 -11 -79 -3 -6
-1 -7 4 -4 6 4 14 27 17 52 4 24 11 47 17 50 5 4 9 22 9 41 0 19 7 49 16 65
26 51 8 44 -21 -8z"/>
<path d="M2220 3162 c-101 -34 -169 -80 -232 -160 -21 -26 -47 -49 -60 -52
-20 -5 -22 -11 -20 -50 3 -44 2 -46 -63 -102 -91 -79 -148 -148 -194 -237 -53
-102 -74 -186 -74 -296 0 -204 90 -389 259 -527 65 -53 72 -63 69 -89 -3 -23
1 -32 18 -39 12 -4 49 -35 83 -68 98 -96 211 -141 354 -142 141 0 256 47 362
148 31 29 65 55 75 56 14 2 19 13 21 47 3 38 8 48 44 74 92 68 183 202 225
330 21 65 26 100 26 190 1 135 -16 206 -80 334 -37 75 -65 114 -136 187 -86
91 -89 94 -85 136 2 36 0 44 -17 47 -11 1 -38 26 -61 55 -51 64 -121 118 -193
147 -78 31 -243 37 -321 11z m127 -187 c0 -8 -4 -12 -9 -9 -4 3 -8 9 -8 15 0
5 4 9 8 9 5 0 9 -7 9 -15z m-103 -26 c-2 -4 10 -31 27 -62 27 -51 28 -55 9
-50 -14 4 -20 0 -20 -11 0 -9 -4 -16 -10 -16 -5 0 -10 4 -10 9 0 6 5 13 10 16
6 3 10 10 10 16 0 5 -4 9 -10 9 -5 0 -10 -7 -10 -15 0 -8 -7 -15 -15 -15 -18
0 -20 27 -3 32 6 2 9 11 6 19 -4 10 -9 5 -19 -14 -12 -26 -14 -27 -26 -11 -12
16 -13 16 -19 -1 -7 -18 -8 -18 -14 1 -4 10 -3 27 2 37 5 11 5 17 -1 17 -6 0
-8 7 -4 16 3 8 11 13 18 10 8 -3 16 2 19 9 3 9 17 13 35 12 16 -1 27 -5 25 -8z
m289 -4 c8 -8 17 -12 19 -9 3 2 11 -2 18 -11 7 -8 8 -15 3 -15 -5 0 -7 -17 -6
-37 3 -32 2 -35 -7 -20 -11 18 -12 18 -26 0 -13 -17 -14 -17 -20 5 -3 12 -8
22 -11 22 -8 0 -67 -43 -75 -55 -15 -20 -8 7 14 53 11 26 21 52 21 59 0 7 4
10 8 7 4 -2 10 0 14 6 9 14 31 12 48 -5z m-153 -5 c0 -5 -9 -10 -19 -10 -11 0
-23 5 -26 10 -4 6 5 10 19 10 14 0 26 -4 26 -10z m-40 -64 c-1 -21 -1 -21 -15
-2 -8 11 -15 23 -15 28 0 4 -7 5 -15 2 -8 -4 -15 -1 -15 6 0 6 4 9 9 5 5 -3
13 0 17 6 9 16 34 -17 34 -45z m93 41 c4 3 7 1 7 -6 0 -8 -7 -11 -15 -7 -9 3
-20 -5 -29 -22 -12 -20 -15 -23 -16 -9 0 32 20 60 34 48 7 -6 16 -8 19 -4z
m-60 -14 c-4 -10 -9 -11 -19 -2 -18 15 -18 15 5 15 11 0 17 -5 14 -13z m9 -53
c18 -16 19 -20 6 -20 -9 0 -19 6 -22 13 -5 10 -7 10 -12 0 -3 -7 -12 -13 -20
-13 -11 0 -10 4 4 19 22 25 19 24 44 1z m126 -8 c2 -7 -3 -12 -12 -12 -9 0
-16 7 -16 16 0 17 22 14 28 -4z m-324 -18 c3 -8 2 -12 -4 -9 -6 3 -10 10 -10
16 0 14 7 11 14 -7z m293 -10 c-9 -9 -28 6 -21 18 4 6 10 6 17 -1 6 -6 8 -13
4 -17z m68 6 c3 -5 1 -10 -4 -10 -6 0 -11 5 -11 10 0 6 2 10 4 10 3 0 8 -4 11
-10z m-25 -10 c0 -5 -4 -10 -10 -10 -5 0 -10 5 -10 10 0 6 5 10 10 10 6 0 10
-4 10 -10z m-260 -20 c8 -5 11 -10 5 -10 -5 0 -17 5 -25 10 -8 5 -10 10 -5 10
6 0 17 -5 25 -10z m35 0 c3 -5 1 -10 -4 -10 -6 0 -11 5 -11 10 0 6 2 10 4 10
3 0 8 -4 11 -10z m145 0 c0 -5 -5 -10 -11 -10 -5 0 -7 5 -4 10 3 6 8 10 11 10
2 0 4 -4 4 -10z m24 -35 c10 -3 21 -7 24 -10 10 -9 -23 -5 -63 9 -22 8 -42 11
-45 8 -7 -10 -40 -11 -40 -2 0 13 41 17 75 7 17 -4 38 -10 49 -12z m-165 1
c-3 -3 -20 -8 -39 -11 -19 -3 -32 -3 -29 0 4 3 17 8 29 10 12 2 25 7 28 10 3
3 8 3 10 0 3 -3 3 -7 1 -9z m31 10 c0 -3 -4 -8 -10 -11 -5 -3 -10 -1 -10 4 0
6 5 11 10 11 6 0 10 -2 10 -4z m90 -36 c10 -7 -10 -10 -65 -9 -54 0 -73 3 -60
9 27 12 107 12 125 0z m100 -40 c0 -20 -5 -20 -162 -18 -145 3 -161 5 -164 21
-2 16 11 17 162 17 158 0 164 -1 164 -20z m-303 -182 c-2 -29 -3 -6 -3 52 0
58 1 81 3 53 2 -29 2 -77 0 -105z m33 51 c0 -64 -4 -98 -10 -94 -6 3 -10 48
-10 101 0 56 4 94 10 94 6 0 10 -40 10 -101z m30 1 c0 -60 -4 -100 -10 -100
-6 0 -10 40 -10 100 0 60 4 100 10 100 6 0 10 -40 10 -100z m30 0 c0 -60 -4
-100 -10 -100 -6 0 -10 40 -10 100 0 60 4 100 10 100 6 0 10 -40 10 -100z m40
0 c0 -82 -3 -100 -15 -100 -12 0 -15 18 -15 100 0 82 3 100 15 100 12 0 15
-18 15 -100z m80 4 c0 -51 -4 -96 -10 -99 -5 -3 -10 3 -10 14 0 11 -4 23 -10
26 -6 4 -10 -5 -10 -20 0 -17 -5 -25 -12 -23 -9 3 -14 35 -16 101 l-3 96 36
-1 35 -1 0 -93z m30 2 c0 -53 -4 -98 -10 -101 -6 -4 -10 30 -10 94 0 61 4 101
10 101 6 0 10 -38 10 -94z m17 -58 c-2 -29 -3 -6 -3 52 0 58 1 81 3 53 2 -29
2 -77 0 -105z m33 57 c0 -57 -4 -95 -10 -95 -6 0 -10 38 -10 95 0 57 4 95 10
95 6 0 10 -38 10 -95z m-336 -133 c-17 -11 -15 -69 2 -76 37 -14 58 35 31 72
-7 9 16 12 109 12 86 -1 114 -3 102 -11 -25 -14 -23 -56 3 -69 40 -22 72 46
32 69 -14 8 0 10 55 11 l72 0 0 -50 0 -50 -217 2 -218 3 -3 48 c-3 43 -1 47
20 47 13 0 18 -3 12 -8z m21 -22 c-3 -5 -11 -10 -16 -10 -6 0 -7 5 -4 10 3 6
11 10 16 10 6 0 7 -4 4 -10z m260 -16 c0 -10 -8 -20 -17 -22 -18 -3 -26 27
-11 42 12 11 28 0 28 -20z m-255 -14 c0 -5 -4 -10 -9 -10 -6 0 -13 5 -16 10
-3 6 1 10 9 10 9 0 16 -4 16 -10z m48 -347 l-1 -298 -8 285 c-8 268 -7 310 6
310 3 0 4 -134 3 -297z m62 2 c0 -190 -4 -295 -10 -295 -6 0 -10 105 -10 295
0 190 4 295 10 295 6 0 10 -105 10 -295z m40 0 c0 -162 -4 -295 -8 -295 -8 0
-22 307 -22 491 0 82 4 99 22 99 4 0 8 -133 8 -295z m78 264 c1 -13 -2 -145
-6 -294 l-9 -270 -3 275 c-2 151 -3 281 -3 288 1 6 -3 12 -8 12 -5 0 -9 -125
-9 -285 0 -167 -4 -285 -9 -285 -8 0 -21 564 -14 582 2 4 16 5 31 4 20 -2 28
-9 30 -27z m23 -274 l-8 -290 -1 300 c-1 184 2 295 7 290 6 -6 7 -124 2 -300z
m26 -143 c-1 -81 -3 -12 -3 153 0 165 2 231 3 147 2 -84 2 -219 0 -300z m-260
46 c-1 -73 -3 -14 -3 132 0 146 2 205 3 133 2 -73 2 -193 0 -265z m63 102 c0
-187 -4 -290 -10 -290 -6 0 -10 103 -10 290 0 187 4 290 10 290 6 0 10 -103
10 -290z m223 238 c-7 -72 -13 -73 -13 -5 0 32 4 57 9 57 5 0 7 -23 4 -52z
m47 -558 c0 -19 -7 -20 -190 -20 -183 0 -190 1 -190 20 0 19 7 20 190 20 183
0 190 -1 190 -20z m40 -50 c0 -19 -7 -20 -235 -20 -189 0 -235 3 -235 13 0 8
3 17 7 20 3 4 109 7 235 7 221 0 228 -1 228 -20z m43 -54 c3 -8 3 -17 0 -20
-4 -3 -129 -6 -280 -6 -266 0 -273 0 -273 20 0 20 7 20 274 20 226 0 275 -2
279 -14z"/>
<path d="M2525 2890 c-3 -5 -1 -10 4 -10 6 0 11 5 11 10 0 6 -2 10 -4 10 -3 0
-8 -4 -11 -10z"/>
<path d="M2246 2398 c-15 -37 -13 -46 7 -30 10 9 16 9 25 0 18 -18 23 -4 11
30 -14 41 -25 40 -43 0z"/>
<path d="M2322 2395 c2 -36 12 -45 22 -22 5 10 7 10 12 0 3 -7 13 -13 21 -13
14 0 14 2 0 18 -13 14 -14 21 -5 30 17 17 2 27 -17 12 -10 -8 -15 -9 -15 -1 0
6 -5 11 -10 11 -6 0 -10 -16 -8 -35z"/>
<path d="M2500 2395 c0 -19 5 -35 10 -35 6 0 10 7 10 15 0 8 5 15 10 15 6 0
10 -7 10 -15 0 -8 5 -15 10 -15 6 0 10 16 10 35 0 19 -4 35 -10 35 -5 0 -10
-7 -10 -15 0 -8 -4 -15 -10 -15 -5 0 -10 7 -10 15 0 8 -4 15 -10 15 -5 0 -10
-16 -10 -35z"/>
<path d="M3133 2502 c10 -10 14 -21 11 -25 -12 -11 89 -67 109 -61 12 4 17 2
13 -4 -6 -11 7 -16 117 -43 69 -17 69 -4 0 16 -77 22 -191 78 -225 109 -31 30
-49 35 -25 8z m74 -52 c26 -16 43 -30 37 -30 -5 0 -29 14 -54 30 -59 39 -45
39 17 0z"/>
<path d="M3142 2350 c0 -19 2 -27 5 -17 2 9 2 25 0 35 -3 9 -5 1 -5 -18z"/>
<path d="M3170 2350 c6 -11 9 -24 6 -29 -9 -15 51 -88 98 -121 25 -17 46 -29
46 -27 0 2 -23 28 -51 58 -27 30 -61 73 -75 97 -26 42 -44 59 -24 22z m80
-114 c0 -15 -34 20 -54 56 -18 32 -18 32 17 -7 20 -22 36 -44 37 -49z"/>
<path d="M3142 2160 c0 -19 2 -27 5 -17 2 9 2 25 0 35 -3 9 -5 1 -5 -18z"/>
<path d="M1546 2123 c-4 -15 -9 -37 -12 -48 -5 -19 -4 -19 9 -3 8 10 17 15 21
11 5 -6 -3 57 -9 65 -2 2 -6 -10 -9 -25z"/>
<path d="M3160 2116 c0 -21 11 -46 20 -46 10 0 0 49 -11 56 -5 3 -9 -1 -9 -10z"/>
<path d="M2950 1723 c0 -16 23 -42 32 -37 6 4 8 3 5 -4 -4 -5 -1 -34 7 -64 11
-44 15 -49 19 -28 4 16 5 12 3 -12 -1 -20 2 -34 7 -31 26 16 -26 180 -57 180
-9 0 -16 -2 -16 -4z m59 -93 c0 -10 -3 -8 -9 5 -12 27 -12 43 0 25 5 -8 9 -22
9 -30z"/>
<path d="M2358 721 c-5 -35 -7 -98 -7 -140 1 -76 1 -76 10 -28 6 27 8 90 7
140 l-3 92 -7 -64z"/>
<path d="M2400 4826 c0 -2 8 -10 18 -17 15 -13 16 -12 3 4 -13 16 -21 21 -21
13z"/>
<path d="M4639 4303 l-24 -28 26 23 c14 12 29 19 32 15 4 -3 7 -1 7 5 0 20
-15 14 -41 -15z"/>
<path d="M70 4296 c0 -2 8 -10 18 -17 15 -13 16 -12 3 4 -13 16 -21 21 -21 13z"/>
<path d="M4678 4205 c-5 -94 -18 -139 -58 -205 -11 -19 -39 -110 -33 -110 2 0
21 36 43 81 52 107 76 214 63 283 -9 50 -9 50 -15 -49z"/>
<path d="M4600 4250 c-6 -11 -8 -20 -6 -20 3 0 10 9 16 20 6 11 8 20 6 20 -3
0 -10 -9 -16 -20z"/>
<path d="M21 4219 c-2 -67 32 -185 79 -279 33 -67 38 -82 23 -77 -12 5 -10 1
6 -10 52 -37 241 -283 218 -283 -4 0 -60 25 -87 39 -8 4 -35 35 -60 68 -85
113 -92 121 -79 93 18 -38 92 -150 100 -150 3 0 4 -10 2 -23 -3 -12 5 -47 16
-76 l20 -53 -21 18 c-59 54 -146 210 -163 294 -10 51 -13 57 -14 29 -3 -107
93 -289 222 -422 28 -28 45 -53 41 -60 -4 -7 -4 -9 0 -5 10 8 13 5 126 -97 48
-45 135 -114 194 -154 59 -41 104 -76 102 -79 -14 -14 -302 161 -418 255 -38
29 -68 50 -68 44 0 -14 140 -131 220 -185 89 -60 321 -186 340 -185 8 0 -23
18 -69 40 -46 21 -82 42 -79 45 6 6 208 -93 208 -101 0 -3 -9 -1 -19 5 -25 13
-32 13 -28 -2 1 -6 36 -23 77 -38 41 -15 125 -50 187 -78 138 -63 250 -102
297 -102 19 0 38 -4 41 -10 9 -14 -40 -12 -131 5 -43 8 -88 12 -99 9 -11 -4
-16 -3 -12 2 4 5 -37 23 -93 41 -56 18 -140 51 -187 73 -47 22 -88 38 -90 36
-7 -7 98 -63 187 -99 108 -45 197 -70 216 -63 8 3 13 2 10 -3 -9 -13 148 -33
199 -25 46 6 72 24 37 24 -11 0 -35 14 -53 31 -45 42 -116 82 -130 73 -7 -4
-9 -3 -5 4 10 17 -536 294 -551 279 -8 -8 291 -154 306 -149 8 2 11 0 8 -5 -4
-6 61 -47 146 -93 245 -134 256 -144 95 -94 -186 59 -489 230 -603 340 l-50
49 43 3 c65 5 143 -22 297 -102 170 -88 307 -173 369 -227 43 -38 46 -39 46
-17 0 39 43 101 85 125 61 33 65 39 65 102 0 68 -13 111 -50 166 -47 69 -170
178 -245 217 -31 16 -7 -4 66 -54 77 -55 168 -150 194 -204 10 -22 20 -66 23
-99 l3 -60 -33 64 c-40 77 -144 191 -237 260 -69 52 -88 61 -75 39 4 -8 3 -10
-2 -5 -5 5 -9 12 -9 17 0 5 -56 48 -125 95 -69 48 -145 103 -169 124 -24 20
-57 47 -74 60 l-30 25 17 -27 c22 -33 108 -102 315 -253 192 -139 327 -265
365 -341 14 -29 26 -59 26 -67 0 -8 -62 47 -137 122 -94 93 -177 164 -258 221
-158 111 -218 157 -278 211 -27 24 -55 45 -63 46 -47 7 -208 151 -286 256 -27
38 -52 68 -54 68 -9 0 70 -117 119 -175 79 -95 165 -164 275 -219 30 -15 52
-30 49 -32 -3 -3 -15 0 -27 6 -12 6 -23 10 -26 8 -2 -2 29 -22 69 -43 188
-102 447 -304 540 -423 26 -33 47 -63 47 -66 0 -18 -30 1 -92 59 -83 79 -187
162 -317 254 -114 81 -330 215 -336 209 -2 -2 42 -34 98 -70 272 -177 654
-488 598 -488 -4 0 -16 10 -27 21 -56 63 -292 224 -519 356 -38 23 -92 60
-119 84 -27 24 -55 44 -62 45 -25 4 -140 99 -249 206 -60 59 -110 106 -112
104 -2 -2 30 -41 71 -88 72 -82 169 -167 287 -250 32 -23 57 -43 56 -45 -2 -1
-19 2 -38 7 -18 6 -53 10 -76 10 -36 0 -51 7 -100 49 -83 69 -167 161 -191
206 -11 22 -27 73 -36 114 -14 60 -14 76 -4 85 7 6 9 7 5 2 -4 -5 22 -29 58
-53 78 -52 259 -234 298 -299 15 -25 30 -44 33 -41 3 3 -9 25 -26 49 l-32 43
29 6 28 7 -27 1 c-28 1 -101 58 -157 122 -46 54 -99 146 -118 206 -9 29 -20
53 -24 53 -10 0 26 -105 51 -147 11 -18 16 -33 12 -33 -15 0 -157 137 -186
179 -16 22 -32 38 -37 36 -4 -3 -11 0 -15 6 -4 8 -3 9 4 5 17 -11 15 2 -7 32
-26 38 -69 125 -97 197 -13 33 -23 55 -24 48 -1 -42 117 -308 138 -308 6 0 14
-4 19 -9 5 -5 3 -6 -4 -2 -22 13 -14 -6 23 -50 19 -24 33 -44 31 -44 -2 0 2
-26 9 -57 8 -32 14 -62 14 -68 0 -25 -165 195 -174 232 -4 15 -23 60 -43 100
-25 51 -39 97 -48 160 -10 69 -13 78 -14 42z m234 -349 l20 -25 -22 19 c-13
11 -23 24 -23 29 0 6 1 8 3 6 1 -2 11 -15 22 -29z m498 -324 c63 -40 80 -61
20 -25 -62 37 -126 85 -153 115 -16 18 -7 13 25 -13 28 -23 76 -57 108 -77z
m-447 30 c30 -14 82 -55 128 -99 108 -107 159 -142 202 -138 104 9 399 -146
639 -334 111 -88 135 -112 128 -130 -4 -13 -11 -11 -39 10 -35 27 -50 32 -38
13 4 -7 3 -8 -5 -4 -6 4 -9 11 -6 15 7 12 -102 84 -115 76 -6 -4 -9 -1 -8 5 4
18 -487 309 -500 296 -2 -3 11 -12 30 -22 52 -26 272 -160 383 -232 55 -36
105 -65 112 -65 7 0 11 -3 10 -7 -1 -4 36 -35 81 -69 59 -44 82 -67 78 -77 -3
-9 -6 -20 -6 -26 0 -5 -21 6 -47 26 -88 67 -478 292 -500 290 -7 -1 -11 2 -8
6 3 4 -8 16 -23 25 -73 47 -138 104 -164 144 -30 47 -38 49 -14 3 17 -34 97
-109 149 -141 21 -13 36 -26 33 -28 -3 -3 -17 2 -31 11 -14 9 -31 14 -37 10
-6 -4 -8 -3 -5 3 4 6 -9 21 -29 32 -77 46 -204 150 -311 256 -61 60 -106 101
-101 90 23 -41 266 -274 342 -326 l78 -54 -41 -3 c-42 -3 -51 -17 -28 -42 6
-7 -15 5 -48 28 -148 102 -271 243 -336 387 -46 102 -40 112 47 71z m589 -136
c3 -5 2 -10 -4 -10 -5 0 -13 5 -16 10 -3 6 -2 10 4 10 5 0 13 -4 16 -10z m354
-154 c25 -19 57 -47 71 -62 18 -20 10 -16 -25 12 -27 22 -63 50 -79 62 -16 12
-25 22 -21 22 4 0 28 -15 54 -34z m126 -106 c10 -11 16 -20 13 -20 -3 0 -13 9
-23 20 -10 11 -16 20 -13 20 3 0 13 -9 23 -20z m-790 -118 c50 -30 81 -51 70
-48 -29 10 -165 92 -195 117 l-25 21 30 -18 c17 -10 71 -42 120 -72z m720 -12
c10 -11 16 -20 13 -20 -3 0 -13 9 -23 20 -10 11 -16 20 -13 20 3 0 13 -9 23
-20z m-530 -70 c3 -6 -1 -7 -9 -4 -18 7 -21 14 -7 14 6 0 13 -4 16 -10z m516
-57 c13 -16 12 -17 -3 -4 -10 7 -18 15 -18 17 0 8 8 3 21 -13z m-201 -28 c17
-9 30 -18 30 -21 0 -4 -59 23 -69 32 -10 9 13 3 39 -11z m276 -27 l19 -23 -25
20 c-14 11 -27 21 -29 22 -2 2 0 3 6 3 5 0 18 -10 29 -22z m-96 -73 c0 -3 -22
6 -50 20 -27 14 -50 28 -50 30 0 3 23 -6 50 -20 28 -14 50 -28 50 -30z m70
-41 c0 -2 -9 0 -20 6 -11 6 -20 13 -20 16 0 2 9 0 20 -6 11 -6 20 -13 20 -16z"/>
<path d="M110 4240 c6 -11 13 -20 16 -20 2 0 0 9 -6 20 -6 11 -13 20 -16 20
-2 0 0 -9 6 -20z"/>
<path d="M3408 4253 c7 -3 16 -2 19 1 4 3 -2 6 -13 5 -11 0 -14 -3 -6 -6z"/>
<path d="M2827 4244 c-12 -12 -8 -26 6 -18 8 5 8 2 -2 -9 -7 -9 -10 -17 -6
-17 4 0 2 -7 -5 -15 -19 -23 -3 -35 33 -23 43 15 43 15 23 36 -9 9 -22 25 -29
35 -7 10 -16 15 -20 11z"/>
<path d="M1680 4199 c0 -5 5 -7 10 -4 6 3 10 8 10 11 0 2 -4 4 -10 4 -5 0 -10
-5 -10 -11z"/>
<path d="M3025 4200 c4 -6 11 -8 16 -5 14 9 11 15 -7 15 -8 0 -12 -5 -9 -10z"/>
<path d="M150 4170 c6 -11 13 -20 16 -20 2 0 0 9 -6 20 -6 11 -13 20 -16 20
-2 0 0 -9 6 -20z"/>
<path d="M2875 4150 c-3 -5 -17 -10 -30 -10 -24 0 -24 0 -7 -29 24 -43 52 -37
52 11 0 39 -4 46 -15 28z m-4 -23 c-6 -8 -7 -18 -3 -23 4 -4 -1 -2 -11 6 -18
14 -18 14 0 21 26 11 27 10 14 -4z"/>
<path d="M4530 4130 c-6 -11 -8 -20 -6 -20 3 0 10 9 16 20 6 11 8 20 6 20 -3
0 -10 -9 -16 -20z"/>
<path d="M180 4120 c6 -11 13 -20 16 -20 2 0 0 9 -6 20 -6 11 -13 20 -16 20
-2 0 0 -9 6 -20z"/>
<path d="M2035 4121 c3 -5 -5 -12 -17 -14 -16 -3 -13 -5 11 -6 29 -1 32 1 21
14 -14 16 -25 21 -15 6z"/>
<path d="M2672 4117 c-10 -11 -6 -14 21 -14 17 -1 25 2 17 5 -8 3 -18 9 -21
14 -3 5 -11 3 -17 -5z"/>
<path d="M3000 4126 c0 -2 8 -10 18 -17 15 -13 16 -12 3 4 -13 16 -21 21 -21
13z"/>
<path d="M2740 4089 c0 -5 5 -7 10 -4 6 3 10 8 10 11 0 2 -4 4 -10 4 -5 0 -10
-5 -10 -11z"/>
<path d="M4485 4054 c-9 -15 -12 -23 -6 -20 11 7 35 46 28 46 -3 0 -12 -12
-22 -26z"/>
<path d="M4411 3957 c-37 -42 -42 -51 -17 -27 34 31 83 90 74 90 -2 0 -27 -28
-57 -63z"/>
<path d="M267 3985 c12 -16 36 -43 54 -60 25 -22 22 -17 -10 20 -59 67 -68 75
-44 40z"/>
<path d="M3543 3983 c9 -2 25 -2 35 0 9 3 1 5 -18 5 -19 0 -27 -2 -17 -5z"/>
<path d="M4277 3928 c-31 -31 -31 -32 -2 -8 16 14 34 28 40 32 5 5 6 8 2 8 -4
0 -22 -15 -40 -32z"/>
<path d="M410 3946 c0 -2 8 -10 18 -17 15 -13 16 -12 3 4 -13 16 -21 21 -21
13z"/>
<path d="M510 3858 c24 -27 45 -48 47 -48 8 0 0 9 -44 50 l-48 45 45 -47z"/>
<path d="M4256 3839 c-41 -62 -170 -192 -232 -235 -30 -21 -50 -40 -44 -44 6
-3 -8 -17 -31 -29 -22 -13 -38 -25 -36 -28 6 -6 77 38 149 94 59 45 167 171
206 242 30 53 22 53 -12 0z m-195 -229 c-30 -28 -60 -50 -65 -50 -6 0 2 11 19
23 16 12 43 34 60 49 16 15 32 27 35 27 3 0 -19 -22 -49 -49z"/>
<path d="M4115 3768 l-70 -73 73 70 c67 64 77 75 69 75 -1 0 -34 -33 -72 -72z"/>
<path d="M640 3720 c43 -41 83 -89 90 -107 7 -18 18 -38 26 -44 20 -17 17 2
-6 31 -11 14 -20 31 -20 37 0 7 -17 27 -37 45 -106 94 -122 106 -53 38z"/>
<path d="M734 3728 c-4 -7 -3 -10 1 -5 5 4 18 -1 29 -10 21 -18 21 -18 2 5
-22 26 -23 26 -32 10z"/>
<path d="M3949 3723 c-13 -16 -12 -17 3 -5 9 8 23 10 29 6 8 -4 9 -3 5 4 -10
17 -21 15 -37 -5z"/>
<path d="M3885 3654 l-50 -46 53 42 c45 36 59 51 50 50 -2 0 -25 -21 -53 -46z"/>
<path d="M835 3640 c49 -43 135 -104 135 -96 0 2 -28 24 -62 49 -35 25 -72 54
-82 66 -11 11 -23 21 -28 21 -5 0 11 -18 37 -40z"/>
<path d="M3762 3566 c-61 -42 -92 -68 -62 -51 32 18 130 86 130 90 0 7 0 7
-68 -39z"/>
<path d="M995 3525 c11 -9 29 -21 40 -26 l20 -10 -20 16 c-11 9 -29 21 -40 26
l-20 10 20 -16z"/>
<path d="M744 3490 c28 -11 51 -18 53 -16 5 5 -74 36 -90 36 -6 -1 10 -10 37
-20z"/>
<path d="M1060 3486 c0 -3 9 -10 20 -16 11 -6 20 -8 20 -6 0 3 -9 10 -20 16
-11 6 -20 8 -20 6z"/>
<path d="M3624 3474 c-18 -14 -18 -15 4 -4 12 6 22 13 22 15 0 8 -5 6 -26 -11z"/>
<path d="M1110 3456 c0 -3 9 -10 20 -16 11 -6 20 -8 20 -6 0 3 -9 10 -20 16
-11 6 -20 8 -20 6z"/>
<path d="M3568 3444 c-38 -20 -36 -28 2 -9 17 9 30 18 30 20 0 7 -1 6 -32 -11z"/>
<path d="M1160 3426 c0 -3 14 -12 30 -21 17 -9 30 -13 30 -11 0 3 -13 12 -30
21 -16 9 -30 13 -30 11z"/>
<path d="M3504 3404 c-18 -14 -18 -15 4 -4 12 6 22 13 22 15 0 8 -5 6 -26 -11z"/>
<path d="M328 3083 c7 -3 16 -2 19 1 4 3 -2 6 -13 5 -11 0 -14 -3 -6 -6z"/>
<path d="M783 2903 c9 -2 23 -2 30 0 6 3 -1 5 -18 5 -16 0 -22 -2 -12 -5z"/>
<path d="M4263 2823 c15 -2 37 -2 50 0 12 2 0 4 -28 4 -27 0 -38 -2 -22 -4z"/>
<path d="M4350 2814 c0 -15 -121 -108 -191 -147 -35 -19 -93 -47 -129 -62 -36
-15 -78 -38 -93 -51 -35 -29 -36 -29 44 -3 78 25 217 97 281 144 49 36 106
110 94 122 -3 3 -6 2 -6 -3z"/>
<path d="M3215 2580 c-9 -15 52 -38 132 -50 53 -8 86 -7 152 4 46 8 89 20 95
27 8 8 6 10 -11 5 -88 -27 -263 -22 -323 9 -34 18 -37 18 -45 5z"/>
<path d="M650 2464 c-11 -12 -11 -17 1 -29 24 -23 152 -83 204 -95 28 -6 60
-17 73 -23 17 -8 25 -8 34 1 9 9 6 12 -14 12 -15 0 -33 6 -40 13 -7 8 -31 20
-53 27 -22 7 -66 26 -97 41 -32 16 -69 29 -83 29 -27 0 -32 9 -13 28 7 7 9 12
6 12 -3 0 -11 -7 -18 -16z"/>
<path d="M1008 2313 c12 -2 32 -2 45 0 12 2 2 4 -23 4 -25 0 -35 -2 -22 -4z"/>
<path d="M890 2300 c-8 -5 -10 -10 -5 -10 6 0 17 5 25 10 8 5 11 10 5 10 -5 0
-17 -5 -25 -10z"/>
<path d="M3760 2146 c0 -2 8 -10 18 -17 15 -13 16 -12 3 4 -13 16 -21 21 -21
13z"/>
<path d="M929 2123 c-13 -16 -12 -17 4 -4 9 7 17 15 17 17 0 8 -8 3 -21 -13z"/>
<path d="M1456 2114 c-4 -9 -4 -19 -1 -22 2 -3 7 3 11 12 4 9 4 19 1 22 -2 3
-7 -3 -11 -12z"/>
<path d="M3800 2116 c0 -2 8 -10 18 -17 15 -13 16 -12 3 4 -13 16 -21 21 -21
13z"/>
<path d="M885 2084 c-9 -15 -12 -23 -6 -20 11 7 35 46 28 46 -3 0 -12 -12 -22
-26z"/>
<path d="M688 1863 c7 -3 16 -2 19 1 4 3 -2 6 -13 5 -11 0 -14 -3 -6 -6z"/>
<path d="M790 1842 c8 -5 26 -13 40 -16 17 -5 20 -4 10 2 -8 5 -26 13 -40 16
-17 5 -20 4 -10 -2z"/>
<path d="M3998 1833 c23 -2 59 -2 80 0 20 2 1 4 -43 4 -44 0 -61 -2 -37 -4z"/>
<path d="M3908 1823 c6 -2 18 -2 25 0 6 3 1 5 -13 5 -14 0 -19 -2 -12 -5z"/>
<path d="M4155 1821 c38 -6 27 -11 -175 -83 -391 -140 -1004 -359 -1092 -391
-49 -17 -86 -32 -84 -34 2 -3 177 57 388 132 210 76 498 177 638 227 140 49
279 98 308 108 56 21 69 19 25 -4 -16 -8 -37 -23 -48 -33 -33 -31 -138 -100
-181 -118 -21 -9 -147 -55 -279 -101 -306 -109 -293 -103 -327 -132 -39 -33
-434 -173 -465 -166 -16 4 -35 -2 -61 -19 -20 -14 -57 -34 -81 -44 l-44 -19
36 0 c20 0 33 4 30 10 -4 5 10 6 35 2 37 -5 42 -4 42 13 0 19 18 31 46 31 8 0
14 -9 14 -19 0 -11 5 -32 10 -47 l11 -27 39 38 39 38 79 -84 c44 -46 76 -87
71 -90 -5 -3 89 -39 208 -81 120 -42 219 -75 221 -73 2 1 -22 17 -53 34 -67
38 -131 95 -170 151 -20 30 -31 37 -36 28 -5 -7 -9 -17 -9 -23 0 -5 4 -4 9 3
6 10 15 6 34 -20 17 -21 23 -36 17 -42 -6 -6 -10 -15 -10 -21 0 -5 5 -2 11 8
10 18 12 18 35 -4 23 -22 32 -49 17 -49 -20 0 -169 54 -178 64 -5 6 -18 10
-27 8 -9 -2 -31 11 -50 28 -18 18 -25 29 -16 26 10 -3 20 -1 23 4 4 6 -7 10
-23 10 -25 0 -29 3 -25 23 3 13 28 48 56 78 41 43 51 50 55 36 2 -11 10 -16
17 -13 8 3 17 -4 20 -15 4 -11 9 -19 11 -16 8 8 -16 58 -24 53 -15 -9 9 118
25 134 14 13 15 12 9 -15 -4 -16 -9 -39 -11 -50 -2 -11 -7 -31 -10 -45 l-7
-25 21 25 c11 14 33 52 50 86 l30 61 286 102 c158 56 308 113 335 126 54 28
140 93 213 164 46 44 47 46 25 53 -13 3 -39 6 -58 6 -35 -1 -35 -1 5 -7z
m-845 -484 c0 -7 -7 -22 -15 -33 -13 -17 -14 -16 -4 14 11 33 19 41 19 19z
m-75 -34 c-5 -16 -8 -36 -9 -45 0 -9 -2 -15 -5 -12 -3 2 -10 -4 -15 -14 -6
-11 -35 -45 -63 -76 -54 -59 -59 -59 -54 4 1 27 50 130 66 142 20 14 16 -13
-9 -68 -15 -32 -24 -59 -22 -61 5 -5 26 32 63 110 13 28 29 47 39 47 13 0 15
-6 9 -27z m-105 -21 c0 -13 -55 -96 -73 -111 -16 -12 -17 -9 -17 37 0 42 4 53
21 63 19 10 20 9 15 -13 -6 -20 -5 -19 9 5 14 25 45 38 45 19z m-102 -57 c1
-35 -14 -57 -23 -32 -5 12 10 67 18 67 2 0 4 -16 5 -35z m-38 -4 c-6 -12 -29
-30 -51 -41 -34 -18 -40 -19 -45 -5 -3 8 -4 22 0 30 7 18 36 20 36 3 0 -7 5
-5 11 5 10 17 50 39 57 32 2 -2 -1 -13 -8 -24z m486 -328 c-7 -7 -56 17 -56
27 0 7 13 4 30 -6 16 -10 28 -19 26 -21z"/>
<path d="M3858 1813 c7 -3 16 -2 19 1 4 3 -2 6 -13 5 -11 0 -14 -3 -6 -6z"/>
<path d="M990 1760 c8 -5 20 -10 25 -10 6 0 3 5 -5 10 -8 5 -19 10 -25 10 -5
0 -3 -5 5 -10z"/>
<path d="M3675 1755 c-25 -12 -26 -14 -5 -9 28 7 60 23 45 23 -5 0 -23 -6 -40
-14z"/>
<path d="M3550 1710 c-8 -5 -10 -10 -5 -10 6 0 17 5 25 10 8 5 11 10 5 10 -5
0 -17 -5 -25 -10z"/>
<path d="M3425 1665 c-25 -12 -26 -14 -5 -9 28 7 60 23 45 23 -5 0 -23 -6 -40
-14z"/>
<path d="M668 1473 c7 -3 16 -2 19 1 4 3 -2 6 -13 5 -11 0 -14 -3 -6 -6z"/>
<path d="M459 1441 c25 -35 138 -128 207 -170 64 -39 167 -78 257 -97 87 -18
261 -29 311 -20 l37 7 -38 28 c-21 15 -41 24 -44 19 -8 -12 -199 6 -287 27
-122 29 -248 98 -347 189 -38 36 -57 46 -83 46 l-33 0 20 -29z m106 -38 c35
-32 88 -73 119 -92 75 -45 233 -98 326 -109 47 -6 61 -10 37 -11 -51 -1 -176
25 -252 54 -61 22 -113 53 -253 148 -80 54 -93 67 -62 67 13 0 49 -25 85 -57z
m665 -223 c18 -12 -59 -12 -105 0 -24 6 -18 8 30 9 33 0 67 -4 75 -9z"/>
<path d="M593 1463 c9 -2 23 -2 30 0 6 3 -1 5 -18 5 -16 0 -22 -2 -12 -5z"/>
<path d="M1791 1407 c8 -10 151 -58 156 -53 2 2 -26 14 -64 26 -37 13 -75 25
-83 28 -8 3 -12 2 -9 -1z"/>
<path d="M1961 1347 c8 -10 151 -58 156 -53 2 2 -26 14 -64 26 -37 13 -75 25
-83 28 -8 3 -12 2 -9 -1z"/>
<path d="M1090 1316 c0 -2 8 -10 18 -17 15 -13 16 -12 3 4 -13 16 -21 21 -21
13z"/>
<path d="M2732 1293 c-24 -8 -41 -17 -39 -19 4 -5 97 26 97 32 0 6 -11 4 -58
-13z"/>
<path d="M2140 1282 c8 -5 26 -13 40 -16 17 -5 20 -4 10 2 -8 5 -26 13 -40 16
-17 5 -20 4 -10 -2z"/>
<path d="M1120 1277 c0 -2 15 -16 33 -33 l32 -29 -29 33 c-28 30 -36 37 -36
29z"/>
<path d="M1443 1139 c-10 -28 -10 -31 1 -17 10 13 15 15 24 6 9 -9 12 -9 12 0
0 7 -4 12 -9 12 -5 0 -11 7 -13 16 -2 10 -8 3 -15 -17z"/>
<path d="M3270 1131 c0 -6 4 -13 10 -16 6 -3 7 1 4 9 -7 18 -14 21 -14 7z"/>
<path d="M1099 1103 c-13 -16 -12 -17 4 -4 9 7 17 15 17 17 0 8 -8 3 -21 -13z"/>
<path d="M1394 1053 c-12 -20 -13 -24 -3 -16 12 10 18 10 27 1 9 -9 12 -9 12
0 0 7 -5 12 -11 12 -6 0 -9 7 -5 15 9 23 0 18 -20 -12z"/>
<path d="M2980 1062 c8 -5 26 -13 40 -16 17 -5 20 -4 10 2 -8 5 -26 13 -40 16
-17 5 -20 4 -10 -2z"/>
<path d="M1325 970 c-27 -27 -45 -50 -41 -50 5 0 21 13 37 29 15 16 36 28 46
27 10 -2 12 -1 6 1 -16 6 -16 16 -1 31 7 7 10 12 7 12 -3 0 -27 -22 -54 -50z"/>
<path d="M1213 876 c-17 -6 -34 -14 -37 -17 -6 -6 61 -207 74 -222 4 -4 25 -1
47 8 l41 16 -41 107 c-22 59 -42 110 -46 113 -3 4 -20 1 -38 -5z m45 -33 c25
-62 62 -166 62 -172 0 -4 -13 -12 -30 -18 l-29 -11 -41 103 c-22 57 -40 106
-40 109 0 5 27 13 51 15 9 0 21 -11 27 -26z"/>
<path d="M963 835 c-3 -9 -3 -18 -1 -21 3 -3 8 4 11 16 6 23 -1 27 -10 5z"/>
<path d="M840 819 c0 -5 5 -7 10 -4 6 3 10 8 10 11 0 2 -4 4 -10 4 -5 0 -10
-5 -10 -11z"/>
<path d="M896 817 c3 -10 9 -15 12 -12 3 3 0 11 -7 18 -10 9 -11 8 -5 -6z"/>
<path d="M3899 813 c-11 -15 -11 -16 1 -5 20 17 47 15 59 -5 6 -10 11 -13 11
-7 1 32 -50 45 -71 17z"/>
<path d="M725 759 c-11 -16 -1 -19 13 -3 7 8 8 14 3 14 -5 0 -13 -5 -16 -11z"/>
<path d="M4072 738 c7 -15 15 -23 17 -17 2 6 -4 18 -13 27 -15 15 -15 15 -4
-10z"/>
<path d="M1965 693 l-17 -28 23 22 c12 12 20 25 17 28 -3 3 -13 -7 -23 -22z"/>
<path d="M1905 599 c-9 -17 -15 -33 -13 -35 3 -2 12 12 21 31 21 43 13 47 -8
4z"/>
<path d="M529 593 l-24 -28 28 24 c25 23 32 31 24 31 -2 0 -14 -12 -28 -27z"/>
<path d="M572 564 c-33 -23 -27 -75 10 -88 22 -8 32 -6 48 9 11 10 20 22 20
27 0 4 -9 -1 -20 -12 -11 -11 -26 -20 -33 -20 -37 0 -51 62 -18 80 27 14 37
13 55 -6 9 -8 16 -11 16 -5 0 10 -31 31 -47 31 -5 0 -19 -7 -31 -16z"/>
<path d="M2830 575 c0 -5 5 -17 10 -25 5 -8 10 -10 10 -5 0 6 -5 17 -10 25 -5
8 -10 11 -10 5z"/>
<path d="M1411 483 c7 -12 15 -20 18 -17 3 2 -3 12 -13 22 -17 16 -18 16 -5
-5z"/>
<path d="M2670 495 c0 -5 5 -17 10 -25 5 -8 10 -10 10 -5 0 6 -5 17 -10 25 -5
8 -10 11 -10 5z"/>
<path d="M1347 464 c-4 -4 -7 -16 -7 -27 0 -13 -5 -17 -15 -13 -19 7 -20 -18
-1 -33 24 -20 77 -9 99 21 12 15 17 31 13 35 -4 4 -13 -1 -19 -12 -11 -19 -11
-19 -17 5 -6 24 -38 39 -53 24z m41 -21 c-2 -10 -10 -18 -18 -18 -8 0 -16 8
-18 18 -2 12 3 17 18 17 15 0 20 -5 18 -17z"/>
<path d="M2358 355 c-5 -38 -7 -110 -7 -160 l2 -90 9 70 c5 39 7 111 6 160
l-3 90 -7 -70z"/>
<path d="M2022 390 c0 -14 2 -19 5 -12 2 6 2 18 0 25 -3 6 -5 1 -5 -13z"/>
<path d="M2701 394 c0 -11 3 -14 6 -6 3 7 2 16 -1 19 -3 4 -6 -2 -5 -13z"/>
<path d="M2263 330 c0 -30 2 -43 4 -27 2 15 2 39 0 55 -2 15 -4 2 -4 -28z"/>
</g>
</svg>
